<?xml version="1.0" encoding="UTF-8" standalone="no"?>
<svg width="829px" height="234px" viewBox="0 0 829 234" version="1.1" xmlns="http://www.w3.org/2000/svg" xmlns:xlink="http://www.w3.org/1999/xlink">
    <!-- Generator: Sketch 39.1 (31720) - http://www.bohemiancoding.com/sketch -->
    <title>sky</title>
    <desc>Created with Sketch.</desc>
    <defs></defs>
    <g id="Page-1" stroke="none" stroke-width="1" fill="none" fill-rule="evenodd">
        <g id="shutterstock_218396899" transform="translate(-6.000000, -19.000000)">
            <g id="sky" transform="translate(3.000000, 0.000000)">
                <g id="clouds" transform="translate(3.000000, 19.000000)">
                    <path d="M723.536,168.926 C723.721,168.762 723.826,168.594 723.826,168.42 C723.826,166.925 716.639,165.712 707.771,165.712 C704.904,165.712 702.218,165.841 699.888,166.064 C699.386,162.346 696.903,159.518 693.908,159.518 C693.782,159.518 693.658,159.534 693.534,159.543 C691.427,156.214 686.845,153.902 681.515,153.902 C674.191,153.902 668.254,158.261 668.254,163.638 C668.254,164.255 668.355,164.853 668.508,165.438 C667.394,165.405 666.235,165.385 665.036,165.385 C657.048,165.385 650.571,166.168 650.571,167.133 C650.571,167.744 653.173,168.282 657.106,168.593 C654.977,168.839 653.648,169.182 653.648,169.562 C653.648,170.309 658.758,170.914 665.061,170.914 C665.082,170.914 665.104,170.913 665.126,170.913 C665.125,170.922 665.121,170.929 665.119,170.937 C648.589,171.244 636.047,172.731 636.047,174.519 C636.047,176.53 651.904,178.16 671.464,178.16 C679.731,178.16 687.331,177.869 693.357,177.38 C695.453,178.244 698.259,178.773 701.349,178.773 C707.834,178.773 713.09,176.447 713.09,173.577 C713.09,173.458 713.081,173.342 713.063,173.226 C715.277,173.447 717.876,173.577 720.668,173.577 C728.689,173.577 735.193,172.525 735.193,171.228 C735.193,170.09 730.184,169.142 723.536,168.926" id="Fill-49" fill="#FFFFFF"></path>
                    <path d="M723.536,168.926 C723.721,168.762 723.826,168.594 723.826,168.42 C723.826,166.925 716.639,165.712 707.771,165.712 C704.904,165.712 702.218,165.841 699.888,166.064 C699.386,162.346 696.903,159.518 693.908,159.518 C693.782,159.518 693.658,159.534 693.534,159.543 C691.427,156.214 686.845,153.902 681.515,153.902 C674.191,153.902 668.254,158.261 668.254,163.638 C668.254,164.255 668.355,164.853 668.508,165.438 C667.394,165.405 666.235,165.385 665.036,165.385 C657.048,165.385 650.571,166.168 650.571,167.133 C650.571,167.744 653.173,168.282 657.106,168.593 C654.977,168.839 653.648,169.182 653.648,169.562 C653.648,170.309 658.758,170.914 665.061,170.914 C665.082,170.914 665.104,170.913 665.126,170.913 C665.125,170.922 665.121,170.929 665.119,170.937 C648.589,171.244 636.047,172.731 636.047,174.519 C636.047,176.53 651.904,178.16 671.464,178.16 C679.731,178.16 687.331,177.869 693.357,177.38 C695.453,178.244 698.259,178.773 701.349,178.773 C707.834,178.773 713.09,176.447 713.09,173.577 C713.09,173.458 713.081,173.342 713.063,173.226 C715.277,173.447 717.876,173.577 720.668,173.577 C728.689,173.577 735.193,172.525 735.193,171.228 C735.193,170.09 730.184,169.142 723.536,168.926" id="Fill-51"></path>
                    <path d="M289.751,120.197 C293.506,119.161 295.91,117.582 295.91,115.812 C295.91,112.694 288.47,110.166 279.293,110.166 C278.379,110.166 277.49,110.198 276.616,110.246 C275.187,106.137 269.494,103.064 262.676,103.064 C254.78,103.064 248.38,107.182 248.38,112.261 C248.38,112.304 248.39,112.345 248.391,112.388 C247.948,112.367 247.5,112.352 247.043,112.352 C241.042,112.352 236.178,114.273 236.178,116.642 C236.178,117.082 236.348,117.507 236.66,117.908 C234.095,118.863 232.536,120.101 232.536,121.457 C232.536,121.865 232.686,122.26 232.951,122.641 C223.023,122.91 215.782,123.745 215.782,124.735 C215.782,125.942 226.544,126.92 239.82,126.92 C242.19,126.92 244.478,126.889 246.64,126.83 C247.621,126.886 248.624,126.92 249.654,126.92 C252.993,126.92 256.097,126.611 258.73,126.083 C259.54,125.99 260.265,125.89 260.9,125.785 C265.283,126.483 271.524,126.92 278.455,126.92 C291.716,126.92 302.466,125.322 302.466,123.349 C302.466,121.984 297.317,120.798 289.751,120.197" id="Fill-53" fill="#FFFFFF"></path>
                    <path d="M289.751,120.197 C293.506,119.161 295.91,117.582 295.91,115.812 C295.91,112.694 288.47,110.166 279.293,110.166 C278.379,110.166 277.49,110.198 276.616,110.246 C275.187,106.137 269.494,103.064 262.676,103.064 C254.78,103.064 248.38,107.182 248.38,112.261 C248.38,112.304 248.39,112.345 248.391,112.388 C247.948,112.367 247.5,112.352 247.043,112.352 C241.042,112.352 236.178,114.273 236.178,116.642 C236.178,117.082 236.348,117.507 236.66,117.908 C234.095,118.863 232.536,120.101 232.536,121.457 C232.536,121.865 232.686,122.26 232.951,122.641 C223.023,122.91 215.782,123.745 215.782,124.735 C215.782,125.942 226.544,126.92 239.82,126.92 C242.19,126.92 244.478,126.889 246.64,126.83 C247.621,126.886 248.624,126.92 249.654,126.92 C252.993,126.92 256.097,126.611 258.73,126.083 C259.54,125.99 260.265,125.89 260.9,125.785 C265.283,126.483 271.524,126.92 278.455,126.92 C291.716,126.92 302.466,125.322 302.466,123.349 C302.466,121.984 297.317,120.798 289.751,120.197" id="Fill-55"></path>
                    <path d="M519.337,138.649 C522.886,138.086 525.156,137.229 525.156,136.266 C525.156,134.571 518.126,133.197 509.453,133.197 C508.59,133.197 507.749,133.214 506.924,133.241 C505.573,131.007 500.192,129.336 493.749,129.336 C486.288,129.336 480.239,131.574 480.239,134.335 C480.239,134.359 480.249,134.381 480.249,134.405 C479.831,134.393 479.408,134.385 478.976,134.385 C473.305,134.385 468.707,135.429 468.707,136.717 C468.707,136.956 468.867,137.188 469.162,137.405 C466.739,137.924 465.267,138.597 465.267,139.334 C465.267,139.556 465.406,139.772 465.657,139.978 C456.275,140.124 449.433,140.578 449.433,141.117 C449.433,141.772 459.603,142.304 472.148,142.304 C474.39,142.304 476.552,142.287 478.595,142.256 C479.521,142.285 480.47,142.304 481.442,142.304 C484.599,142.304 487.532,142.136 490.021,141.85 C490.785,141.799 491.471,141.744 492.071,141.688 C496.214,142.067 502.111,142.304 508.661,142.304 C521.194,142.304 531.354,141.436 531.354,140.364 C531.354,139.621 526.487,138.976 519.337,138.649" id="Fill-57" fill="#FFFFFF"></path>
                    <path d="M519.337,138.649 C522.886,138.086 525.156,137.229 525.156,136.266 C525.156,134.571 518.126,133.197 509.453,133.197 C508.59,133.197 507.749,133.214 506.924,133.241 C505.573,131.007 500.192,129.336 493.749,129.336 C486.288,129.336 480.239,131.574 480.239,134.335 C480.239,134.359 480.249,134.381 480.249,134.405 C479.831,134.393 479.408,134.385 478.976,134.385 C473.305,134.385 468.707,135.429 468.707,136.717 C468.707,136.956 468.867,137.188 469.162,137.405 C466.739,137.924 465.267,138.597 465.267,139.334 C465.267,139.556 465.406,139.772 465.657,139.978 C456.275,140.124 449.433,140.578 449.433,141.117 C449.433,141.772 459.603,142.304 472.148,142.304 C474.39,142.304 476.552,142.287 478.595,142.256 C479.521,142.285 480.47,142.304 481.442,142.304 C484.599,142.304 487.532,142.136 490.021,141.85 C490.785,141.799 491.471,141.744 492.071,141.688 C496.214,142.067 502.111,142.304 508.661,142.304 C521.194,142.304 531.354,141.436 531.354,140.364 C531.354,139.621 526.487,138.976 519.337,138.649" id="Fill-59"></path>
                    <path d="M118.604,132.111 C110.99,132.111 104.108,132.398 99.164,132.861 C99.207,132.614 99.232,132.364 99.232,132.111 C99.232,132.108 99.231,132.105 99.231,132.101 C107.335,132.004 113.801,130.194 113.801,127.967 C113.801,125.679 106.972,123.825 98.549,123.825 C97.471,123.825 96.433,123.866 95.419,123.923 C95.233,119.909 92.599,116.722 89.367,116.722 C86.162,116.722 83.543,119.857 83.319,123.826 C83.312,123.826 83.305,123.825 83.297,123.825 C81.401,123.825 79.589,124.004 77.903,124.321 C76.859,124.119 75.713,124.007 74.511,124.007 C69.658,124.007 65.724,125.822 65.724,128.059 C65.724,129.015 66.447,129.892 67.648,130.585 C67.551,130.857 67.476,131.131 67.431,131.411 C66.295,131.335 65.118,131.291 63.903,131.291 C55.253,131.291 48.241,133.329 48.241,135.844 C48.241,135.85 48.244,135.856 48.244,135.862 C35.926,136.001 26.388,136.959 26.388,138.12 C26.388,139.377 37.558,140.397 51.337,140.397 C54.416,140.397 57.363,140.346 60.085,140.252 C61.196,140.333 62.349,140.384 63.539,140.392 L63.539,140.397 C63.539,144.62 69.246,148.045 76.286,148.045 C81.943,148.045 86.733,145.831 88.399,142.772 C91.33,143.329 95.281,143.674 99.642,143.674 C108.668,143.674 115.986,142.206 115.986,140.397 C115.986,138.586 108.668,137.119 99.642,137.119 C98.328,137.119 97.057,137.153 95.833,137.211 C96.332,136.881 96.781,136.529 97.181,136.16 C102.169,136.744 109.908,137.119 118.604,137.119 C133.653,137.119 145.852,135.997 145.852,134.615 C145.852,133.232 133.653,132.111 118.604,132.111" id="Fill-61" fill="#FFFFFF"></path>
                    <path d="M118.604,132.111 C110.99,132.111 104.108,132.398 99.164,132.861 C99.207,132.614 99.232,132.364 99.232,132.111 C99.232,132.108 99.231,132.105 99.231,132.101 C107.335,132.004 113.801,130.194 113.801,127.967 C113.801,125.679 106.972,123.825 98.549,123.825 C97.471,123.825 96.433,123.866 95.419,123.923 C95.233,119.909 92.599,116.722 89.367,116.722 C86.162,116.722 83.543,119.857 83.319,123.826 C83.312,123.826 83.305,123.825 83.297,123.825 C81.401,123.825 79.589,124.004 77.903,124.321 C76.859,124.119 75.713,124.007 74.511,124.007 C69.658,124.007 65.724,125.822 65.724,128.059 C65.724,129.015 66.447,129.892 67.648,130.585 C67.551,130.857 67.476,131.131 67.431,131.411 C66.295,131.335 65.118,131.291 63.903,131.291 C55.253,131.291 48.241,133.329 48.241,135.844 C48.241,135.85 48.244,135.856 48.244,135.862 C35.926,136.001 26.388,136.959 26.388,138.12 C26.388,139.377 37.558,140.397 51.337,140.397 C54.416,140.397 57.363,140.346 60.085,140.252 C61.196,140.333 62.349,140.384 63.539,140.392 L63.539,140.397 C63.539,144.62 69.246,148.045 76.286,148.045 C81.943,148.045 86.733,145.831 88.399,142.772 C91.33,143.329 95.281,143.674 99.642,143.674 C108.668,143.674 115.986,142.206 115.986,140.397 C115.986,138.586 108.668,137.119 99.642,137.119 C98.328,137.119 97.057,137.153 95.833,137.211 C96.332,136.881 96.781,136.529 97.181,136.16 C102.169,136.744 109.908,137.119 118.604,137.119 C133.653,137.119 145.852,135.997 145.852,134.615 C145.852,133.232 133.653,132.111 118.604,132.111" id="Fill-63"></path>
                    <path d="M199.151,178.743 C199.151,174.671 194.031,171.357 187.597,171.154 C187.393,167.361 184.262,164.346 180.418,164.346 C178.12,164.346 176.079,165.426 174.761,167.103 C172.011,166.162 168.812,165.618 165.385,165.618 C155.142,165.618 146.838,170.429 146.838,176.366 C146.838,177.147 146.99,177.907 147.263,178.64 C140.076,179.494 135.234,181.094 135.234,182.928 C135.234,185.326 143.5,187.325 154.472,187.778 C154.652,187.868 154.879,187.955 155.145,188.041 C151.905,187.934 148.294,187.874 144.483,187.874 C130.55,187.874 119.254,188.673 119.254,189.658 C119.254,190.643 130.55,191.441 144.483,191.441 C158.417,191.441 169.713,190.643 169.713,189.658 C169.713,189.63 169.701,189.604 169.684,189.577 C171.389,189.627 173.169,189.658 175.014,189.658 C186.663,189.658 196.107,188.573 196.107,187.234 C196.107,186.677 194.455,186.165 191.705,185.756 C196.08,184.603 199.151,181.897 199.151,178.743" id="Fill-65" fill="#FFFFFF"></path>
                    <path d="M199.151,178.743 C199.151,174.671 194.031,171.357 187.597,171.154 C187.393,167.361 184.262,164.346 180.418,164.346 C178.12,164.346 176.079,165.426 174.761,167.103 C172.011,166.162 168.812,165.618 165.385,165.618 C155.142,165.618 146.838,170.429 146.838,176.366 C146.838,177.147 146.99,177.907 147.263,178.64 C140.076,179.494 135.234,181.094 135.234,182.928 C135.234,185.326 143.5,187.325 154.472,187.778 C154.652,187.868 154.879,187.955 155.145,188.041 C151.905,187.934 148.294,187.874 144.483,187.874 C130.55,187.874 119.254,188.673 119.254,189.658 C119.254,190.643 130.55,191.441 144.483,191.441 C158.417,191.441 169.713,190.643 169.713,189.658 C169.713,189.63 169.701,189.604 169.684,189.577 C171.389,189.627 173.169,189.658 175.014,189.658 C186.663,189.658 196.107,188.573 196.107,187.234 C196.107,186.677 194.455,186.165 191.705,185.756 C196.08,184.603 199.151,181.897 199.151,178.743" id="Fill-67"></path>
                    <path d="M684.698,195.868 C684.698,197.304 622.762,198.47 546.358,198.47 C469.957,198.47 408.021,197.304 408.021,195.868 C408.021,194.431 469.957,193.265 546.358,193.265 C622.762,193.265 684.698,194.431 684.698,195.868" id="Fill-69" fill="#FFFFFF"></path>
                    <path d="M684.698,195.868 C684.698,197.304 622.762,198.47 546.358,198.47 C469.957,198.47 408.021,197.304 408.021,195.868 C408.021,194.431 469.957,193.265 546.358,193.265 C622.762,193.265 684.698,194.431 684.698,195.868" id="Fill-71"></path>
                    <path d="M661.965,184.158 C661.965,185.047 640.634,185.768 614.32,185.768 C588.006,185.768 566.675,185.047 566.675,184.158 C566.675,183.269 588.006,182.548 614.32,182.548 C640.634,182.548 661.965,183.269 661.965,184.158" id="Fill-75"></path>
                    <path d="M817.75,187.95 C817.75,189.026 769.172,189.897 709.248,189.897 C649.324,189.897 600.746,189.026 600.746,187.95 C600.746,186.873 649.324,186.001 709.248,186.001 C769.172,186.001 817.75,186.873 817.75,187.95" id="Fill-76" fill="#FFFFFF"></path>
                    <path d="M817.75,187.95 C817.75,189.026 769.172,189.897 709.248,189.897 C649.324,189.897 600.746,189.026 600.746,187.95 C600.746,186.873 649.324,186.001 709.248,186.001 C769.172,186.001 817.75,186.873 817.75,187.95" id="Fill-78"></path>
                    <path d="M273.721,152.492 C273.721,153.122 227.219,153.633 169.855,153.633 C112.492,153.633 65.99,153.122 65.99,152.492 C65.99,151.861 112.492,151.35 169.855,151.35 C227.219,151.35 273.721,151.861 273.721,152.492" id="Fill-80" fill="#FFFFFF"></path>
                    <path d="M273.721,152.492 C273.721,153.122 227.219,153.633 169.855,153.633 C112.492,153.633 65.99,153.122 65.99,152.492 C65.99,151.861 112.492,151.35 169.855,151.35 C227.219,151.35 273.721,151.861 273.721,152.492" id="Fill-82"></path>
                    <path d="M375.684,142.6 C375.684,143.65 328.671,144.501 270.677,144.501 C212.684,144.501 165.67,143.65 165.67,142.6 C165.67,141.549 212.684,140.698 270.677,140.698 C328.671,140.698 375.684,141.549 375.684,142.6" id="Fill-84" fill="#FFFFFF"></path>
                    <path d="M375.684,142.6 C375.684,143.65 328.671,144.501 270.677,144.501 C212.684,144.501 165.67,143.65 165.67,142.6 C165.67,141.549 212.684,140.698 270.677,140.698 C328.671,140.698 375.684,141.549 375.684,142.6" id="Fill-86"></path>
                    <path d="M241.762,160.101 C241.762,158.63 188.617,157.438 123.059,157.438 C57.501,157.438 4.355,158.63 4.355,160.101 C4.355,161.572 57.501,162.764 123.059,162.764 C188.617,162.764 241.762,161.572 241.762,160.101" id="Fill-88" fill="#FFFFFF"></path>
                    <path d="M241.762,160.101 C241.762,158.63 188.617,157.438 123.059,157.438 C57.501,157.438 4.355,158.63 4.355,160.101 C4.355,161.572 57.501,162.764 123.059,162.764 C188.617,162.764 241.762,161.572 241.762,160.101" id="Fill-90"></path>
                    <path d="M270.677,118.631 C270.677,117.79 242.571,117.109 207.901,117.109 C173.231,117.109 145.125,117.79 145.125,118.631 C145.125,119.471 173.231,120.153 207.901,120.153 C242.571,120.153 270.677,119.471 270.677,118.631" id="Fill-92" fill="#FFFFFF"></path>
                    <path d="M270.677,118.631 C270.677,117.79 242.571,117.109 207.901,117.109 C173.231,117.109 145.125,117.79 145.125,118.631 C145.125,119.471 173.231,120.153 207.901,120.153 C242.571,120.153 270.677,119.471 270.677,118.631" id="Fill-94"></path>
                    <path d="M556.301,164.928 C556.301,166.85 553.459,168.409 549.953,168.409 C546.447,168.409 543.605,166.85 543.605,164.928 C543.605,163.005 546.447,161.447 549.953,161.447 C553.459,161.447 556.301,163.005 556.301,164.928" id="Fill-96" fill="#FFFFFF"></path>
                    <path d="M556.301,164.928 C556.301,166.85 553.459,168.409 549.953,168.409 C546.447,168.409 543.605,166.85 543.605,164.928 C543.605,163.005 546.447,161.447 549.953,161.447 C553.459,161.447 556.301,163.005 556.301,164.928" id="Fill-98"></path>
                    <path d="M614.543,167.15 C614.543,166.676 612.994,166.247 610.477,165.923 C610.621,165.783 610.7,165.641 610.7,165.495 C610.7,163.898 601.635,162.601 590.455,162.601 C587.66,162.601 584.995,162.682 582.574,162.828 C580.81,161.505 577.08,160.589 572.748,160.589 C572.011,160.589 571.287,160.617 570.59,160.667 C568.862,157.771 563.359,155.454 556.246,154.587 C554.684,152.617 550.405,151.2 545.357,151.2 C543.995,151.2 542.691,151.307 541.476,151.497 C537.848,148.895 531.602,147.174 524.492,147.174 C515.72,147.174 508.254,149.791 505.413,153.457 C504.783,153.09 504.028,152.875 503.216,152.875 C501.019,152.875 499.234,154.441 499.234,156.371 L499.234,156.375 C494.008,157.047 490.449,158.358 490.449,159.869 C490.449,159.9 490.461,159.929 490.463,159.96 C487.311,160.308 484.96,161.634 484.96,163.222 C484.96,163.605 485.103,163.972 485.355,164.315 C478.819,164.806 474.526,165.636 474.526,166.576 C474.526,168.085 485.588,169.309 499.234,169.309 C503.446,169.309 507.409,169.192 510.88,168.987 C513.226,169.281 515.811,169.445 518.528,169.445 C520.415,169.445 522.23,169.359 523.956,169.212 C523.952,169.244 523.943,169.277 523.943,169.309 C523.943,172.456 534.639,175.01 547.829,175.01 C555.806,175.01 562.864,174.076 567.201,172.641 C567.872,172.655 568.551,172.662 569.243,172.662 C574.938,172.662 579.988,172.236 583.139,171.576 C593.292,171.285 600.815,170.231 600.815,168.973 C600.815,168.969 600.814,168.964 600.813,168.96 C608.541,168.854 614.543,168.084 614.543,167.15 L614.543,167.15 Z M499.234,163.843 L499.108,163.843 C499.171,163.687 499.206,163.526 499.221,163.363 C499.249,163.367 499.278,163.37 499.308,163.374 C499.265,163.529 499.234,163.686 499.234,163.843 L499.234,163.843 Z" id="Fill-100" fill="#FFFFFF"></path>
                    <path d="M614.543,167.15 C614.543,166.676 612.994,166.247 610.477,165.923 C610.621,165.783 610.7,165.641 610.7,165.495 C610.7,163.898 601.635,162.601 590.455,162.601 C587.66,162.601 584.995,162.682 582.574,162.828 C580.81,161.505 577.08,160.589 572.748,160.589 C572.011,160.589 571.287,160.617 570.59,160.667 C568.862,157.771 563.359,155.454 556.246,154.587 C554.684,152.617 550.405,151.2 545.357,151.2 C543.995,151.2 542.691,151.307 541.476,151.497 C537.848,148.895 531.602,147.174 524.492,147.174 C515.72,147.174 508.254,149.791 505.413,153.457 C504.783,153.09 504.028,152.875 503.216,152.875 C501.019,152.875 499.234,154.441 499.234,156.371 L499.234,156.375 C494.008,157.047 490.449,158.358 490.449,159.869 C490.449,159.9 490.461,159.929 490.463,159.96 C487.311,160.308 484.96,161.634 484.96,163.222 C484.96,163.605 485.103,163.972 485.355,164.315 C478.819,164.806 474.526,165.636 474.526,166.576 C474.526,168.085 485.588,169.309 499.234,169.309 C503.446,169.309 507.409,169.192 510.88,168.987 C513.226,169.281 515.811,169.445 518.528,169.445 C520.415,169.445 522.23,169.359 523.956,169.212 C523.952,169.244 523.943,169.277 523.943,169.309 C523.943,172.456 534.639,175.01 547.829,175.01 C555.806,175.01 562.864,174.076 567.201,172.641 C567.872,172.655 568.551,172.662 569.243,172.662 C574.938,172.662 579.988,172.236 583.139,171.576 C593.292,171.285 600.815,170.231 600.815,168.973 C600.815,168.969 600.814,168.964 600.813,168.96 C608.541,168.854 614.543,168.084 614.543,167.15 L614.543,167.15 Z M499.234,163.843 L499.108,163.843 C499.171,163.687 499.206,163.526 499.221,163.363 C499.249,163.367 499.278,163.37 499.308,163.374 C499.265,163.529 499.234,163.686 499.234,163.843 L499.234,163.843 Z" id="Fill-102"></path>
                    <path d="M570.145,165.185 C568.699,165.185 567.34,165.278 566.149,165.441 C567.222,164.918 567.896,164.216 567.896,163.433 C567.896,161.818 565.102,160.508 561.656,160.508 C558.21,160.508 555.416,161.818 555.416,163.433 C555.416,163.67 555.492,163.897 555.605,164.117 C554.099,163.992 552.442,163.921 550.702,163.921 C550.525,163.921 550.353,163.925 550.178,163.926 C550.179,163.897 550.192,163.869 550.192,163.839 C550.192,162.044 547.854,160.589 544.968,160.589 C544.248,160.589 543.563,160.679 542.941,160.843 C542.122,159.401 540.385,158.396 538.355,158.396 C536.189,158.396 534.352,159.536 533.616,161.137 C533.229,161.066 532.798,161.018 532.367,160.97 C531.917,159.325 529.675,158.072 526.962,158.072 C523.924,158.072 521.461,159.639 521.461,161.574 C521.461,161.902 521.555,162.214 521.688,162.515 C517.64,162.644 514.179,162.989 511.946,163.459 C510.528,163.289 508.873,163.19 507.096,163.19 C501.887,163.19 497.663,164.03 497.663,165.065 C497.663,166.1 501.887,166.94 507.096,166.94 C507.329,166.94 507.558,166.936 507.787,166.932 C507.623,167.064 507.531,167.199 507.531,167.338 C507.531,168.515 513.715,169.47 521.343,169.47 C528.972,169.47 535.156,168.515 535.156,167.338 C535.156,167.059 534.8,166.793 534.169,166.549 C534.747,166.494 535.288,166.431 535.809,166.366 C536.555,166.735 537.424,166.948 538.355,166.948 C538.396,166.948 538.438,166.941 538.479,166.94 C539.757,168.035 544.738,168.854 550.702,168.854 C555.44,168.854 559.564,168.337 561.699,167.575 C562.131,168.67 565.747,169.526 570.145,169.526 C574.833,169.526 578.633,168.554 578.633,167.356 C578.633,166.158 574.833,165.185 570.145,165.185" id="Fill-104" fill="#FFFFFF"></path>
                    <path d="M570.145,165.185 C568.699,165.185 567.34,165.278 566.149,165.441 C567.222,164.918 567.896,164.216 567.896,163.433 C567.896,161.818 565.102,160.508 561.656,160.508 C558.21,160.508 555.416,161.818 555.416,163.433 C555.416,163.67 555.492,163.897 555.605,164.117 C554.099,163.992 552.442,163.921 550.702,163.921 C550.525,163.921 550.353,163.925 550.178,163.926 C550.179,163.897 550.192,163.869 550.192,163.839 C550.192,162.044 547.854,160.589 544.968,160.589 C544.248,160.589 543.563,160.679 542.941,160.843 C542.122,159.401 540.385,158.396 538.355,158.396 C536.189,158.396 534.352,159.536 533.616,161.137 C533.229,161.066 532.798,161.018 532.367,160.97 C531.917,159.325 529.675,158.072 526.962,158.072 C523.924,158.072 521.461,159.639 521.461,161.574 C521.461,161.902 521.555,162.214 521.688,162.515 C517.64,162.644 514.179,162.989 511.946,163.459 C510.528,163.289 508.873,163.19 507.096,163.19 C501.887,163.19 497.663,164.03 497.663,165.065 C497.663,166.1 501.887,166.94 507.096,166.94 C507.329,166.94 507.558,166.936 507.787,166.932 C507.623,167.064 507.531,167.199 507.531,167.338 C507.531,168.515 513.715,169.47 521.343,169.47 C528.972,169.47 535.156,168.515 535.156,167.338 C535.156,167.059 534.8,166.793 534.169,166.549 C534.747,166.494 535.288,166.431 535.809,166.366 C536.555,166.735 537.424,166.948 538.355,166.948 C538.396,166.948 538.438,166.941 538.479,166.94 C539.757,168.035 544.738,168.854 550.702,168.854 C555.44,168.854 559.564,168.337 561.699,167.575 C562.131,168.67 565.747,169.526 570.145,169.526 C574.833,169.526 578.633,168.554 578.633,167.356 C578.633,166.158 574.833,165.185 570.145,165.185" id="Fill-106"></path>
                    <path d="M705.391,172.833 C704.002,172.833 702.739,172.904 701.779,173.017 C702.083,172.764 702.255,172.49 702.255,172.201 C702.255,171.126 699.942,170.234 696.888,170.042 C696.914,169.898 696.936,169.75 696.936,169.598 C696.936,168.161 695.693,166.996 694.16,166.996 C694.074,166.996 693.993,167.013 693.909,167.02 C693.173,165.914 691.654,165.147 689.882,165.147 C689.61,165.147 689.348,165.172 689.089,165.206 C688.476,163.309 686.485,161.909 684.1,161.909 C681.908,161.909 680.041,163.087 679.274,164.75 C679.221,164.715 679.161,164.688 679.104,164.656 C679.198,164.367 679.249,164.068 679.249,163.76 C679.249,161.397 676.349,159.481 672.771,159.481 C669.212,159.481 666.326,161.377 666.296,163.723 C664.476,164.151 663.174,165.242 663.174,166.532 C663.174,168.194 665.322,169.54 667.973,169.54 C669.756,169.54 671.294,168.923 672.121,168.018 C672.335,168.032 672.551,168.039 672.771,168.039 C673.305,168.039 673.82,167.993 674.317,167.911 C674.539,169.484 675.876,170.697 677.51,170.697 C678.603,170.697 679.563,170.152 680.15,169.323 C681.104,170.297 682.51,170.928 684.1,170.928 C684.882,170.928 685.615,170.768 686.281,170.5 C686.971,171.186 688.006,171.652 689.19,171.791 C689.115,171.924 689.072,172.061 689.072,172.201 C689.072,173.414 692.023,174.398 695.664,174.398 C697.447,174.398 699.063,174.16 700.249,173.778 C700.966,174.063 702.995,174.269 705.391,174.269 C708.385,174.269 710.812,173.947 710.812,173.551 C710.812,173.156 708.385,172.833 705.391,172.833" id="Fill-108" fill="#FFFFFF"></path>
                    <path d="M705.391,172.833 C704.002,172.833 702.739,172.904 701.779,173.017 C702.083,172.764 702.255,172.49 702.255,172.201 C702.255,171.126 699.942,170.234 696.888,170.042 C696.914,169.898 696.936,169.75 696.936,169.598 C696.936,168.161 695.693,166.996 694.16,166.996 C694.074,166.996 693.993,167.013 693.909,167.02 C693.173,165.914 691.654,165.147 689.882,165.147 C689.61,165.147 689.348,165.172 689.089,165.206 C688.476,163.309 686.485,161.909 684.1,161.909 C681.908,161.909 680.041,163.087 679.274,164.75 C679.221,164.715 679.161,164.688 679.104,164.656 C679.198,164.367 679.249,164.068 679.249,163.76 C679.249,161.397 676.349,159.481 672.771,159.481 C669.212,159.481 666.326,161.377 666.296,163.723 C664.476,164.151 663.174,165.242 663.174,166.532 C663.174,168.194 665.322,169.54 667.973,169.54 C669.756,169.54 671.294,168.923 672.121,168.018 C672.335,168.032 672.551,168.039 672.771,168.039 C673.305,168.039 673.82,167.993 674.317,167.911 C674.539,169.484 675.876,170.697 677.51,170.697 C678.603,170.697 679.563,170.152 680.15,169.323 C681.104,170.297 682.51,170.928 684.1,170.928 C684.882,170.928 685.615,170.768 686.281,170.5 C686.971,171.186 688.006,171.652 689.19,171.791 C689.115,171.924 689.072,172.061 689.072,172.201 C689.072,173.414 692.023,174.398 695.664,174.398 C697.447,174.398 699.063,174.16 700.249,173.778 C700.966,174.063 702.995,174.269 705.391,174.269 C708.385,174.269 710.812,173.947 710.812,173.551 C710.812,173.156 708.385,172.833 705.391,172.833" id="Fill-110"></path>
                    <path d="M654.628,215.865 C650.992,215.865 647.687,215.935 645.172,216.048 C645.969,215.795 646.418,215.521 646.418,215.232 C646.418,214.158 640.363,213.265 632.365,213.074 C632.436,212.929 632.491,212.782 632.491,212.629 C632.491,211.193 629.239,210.028 625.226,210.028 C625.001,210.028 624.788,210.044 624.567,210.051 C622.641,208.946 618.665,208.178 614.023,208.178 C613.313,208.178 612.626,208.203 611.948,208.238 C610.343,206.34 605.132,204.94 598.886,204.94 C593.147,204.94 588.261,206.119 586.253,207.782 C586.111,207.746 585.957,207.719 585.808,207.687 C586.053,207.398 586.186,207.099 586.186,206.791 C586.186,204.428 578.592,202.512 569.226,202.512 C559.909,202.512 552.353,204.409 552.274,206.754 C547.508,207.182 544.1,208.273 544.1,209.563 C544.1,211.225 549.724,212.572 556.664,212.572 C561.333,212.572 565.359,211.954 567.524,211.049 C568.085,211.063 568.649,211.071 569.226,211.071 C570.623,211.071 571.973,211.024 573.274,210.943 C573.854,212.515 577.354,213.728 581.633,213.728 C584.493,213.728 587.01,213.183 588.546,212.354 C591.044,213.328 594.724,213.959 598.886,213.959 C600.935,213.959 602.854,213.799 604.598,213.532 C606.402,214.217 609.113,214.683 612.213,214.823 C612.017,214.955 611.904,215.092 611.904,215.232 C611.904,216.446 619.631,217.429 629.163,217.429 C633.832,217.429 638.06,217.192 641.166,216.809 C643.044,217.094 648.355,217.3 654.628,217.3 C662.467,217.3 668.82,216.978 668.82,216.582 C668.82,216.187 662.467,215.865 654.628,215.865" id="Fill-112" fill="#FFFFFF"></path>
                    <path d="M654.628,215.865 C650.992,215.865 647.687,215.935 645.172,216.048 C645.969,215.795 646.418,215.521 646.418,215.232 C646.418,214.158 640.363,213.265 632.365,213.074 C632.436,212.929 632.491,212.782 632.491,212.629 C632.491,211.193 629.239,210.028 625.226,210.028 C625.001,210.028 624.788,210.044 624.567,210.051 C622.641,208.946 618.665,208.178 614.023,208.178 C613.313,208.178 612.626,208.203 611.948,208.238 C610.343,206.34 605.132,204.94 598.886,204.94 C593.147,204.94 588.261,206.119 586.253,207.782 C586.111,207.746 585.957,207.719 585.808,207.687 C586.053,207.398 586.186,207.099 586.186,206.791 C586.186,204.428 578.592,202.512 569.226,202.512 C559.909,202.512 552.353,204.409 552.274,206.754 C547.508,207.182 544.1,208.273 544.1,209.563 C544.1,211.225 549.724,212.572 556.664,212.572 C561.333,212.572 565.359,211.954 567.524,211.049 C568.085,211.063 568.649,211.071 569.226,211.071 C570.623,211.071 571.973,211.024 573.274,210.943 C573.854,212.515 577.354,213.728 581.633,213.728 C584.493,213.728 587.01,213.183 588.546,212.354 C591.044,213.328 594.724,213.959 598.886,213.959 C600.935,213.959 602.854,213.799 604.598,213.532 C606.402,214.217 609.113,214.683 612.213,214.823 C612.017,214.955 611.904,215.092 611.904,215.232 C611.904,216.446 619.631,217.429 629.163,217.429 C633.832,217.429 638.06,217.192 641.166,216.809 C643.044,217.094 648.355,217.3 654.628,217.3 C662.467,217.3 668.82,216.978 668.82,216.582 C668.82,216.187 662.467,215.865 654.628,215.865" id="Fill-114"></path>
                    <path d="M769.755,160.361 C766.008,160.361 762.568,158.197 759.834,158.591 C759.898,158.374 759.942,158.154 759.942,157.929 C759.942,156.918 759.258,155.977 758.091,155.172 C758.312,154.814 758.441,154.446 758.441,154.069 C758.441,151.388 752.59,149.13 744.536,148.367 C744.544,148.246 744.555,148.127 744.555,148.005 C744.555,145.483 743.015,143.323 740.824,142.409 C744.776,136.925 735.109,128.694 725.342,132.667 C714.443,125.028 708.109,136.086 710.328,140.74 C709.653,140.568 708.949,140.467 708.221,140.467 C703.755,140.467 700.093,143.889 699.7,148.252 C697.397,148.018 694.882,147.886 692.241,147.886 C689.368,147.886 686.646,148.042 684.183,148.318 C685.434,147.378 686.154,146.332 686.154,145.223 C686.154,142.756 682.678,140.587 677.389,139.285 C679.952,138.261 681.58,136.752 681.58,135.065 C681.58,132.13 676.669,129.729 670.435,129.504 C667.419,124.06 659.292,119.958 649.356,119.128 C648.089,114.263 645.872,110.922 639.244,110.922 C633.42,110.922 630.211,117.59 629.443,117.694 C629.443,111.442 624.916,106.796 619.574,106.796 C607.597,106.796 597.888,114.291 597.888,123.536 C597.888,123.919 597.91,124.297 597.942,124.673 C584.786,126.003 575.061,130.71 575.061,136.314 C575.061,137.845 575.794,139.307 577.118,140.654 C563.714,140.751 552.993,142.982 552.993,145.719 C552.993,148.52 564.204,150.789 578.034,150.789 C579.885,150.789 581.687,150.747 583.423,150.67 C588.333,151.421 596.146,151.908 604.946,151.908 C611.139,151.908 616.838,151.666 621.386,151.262 C624.597,151.675 628.134,151.908 631.858,151.908 C633.515,151.908 635.131,151.858 636.702,151.772 C636.7,151.791 636.694,151.812 636.694,151.832 C636.694,154.852 647.229,157.3 660.225,157.3 C666.506,157.3 672.208,156.727 676.428,155.795 C680.036,156.996 685.767,157.778 692.241,157.778 C696.863,157.778 701.104,157.378 704.472,156.714 C704.756,156.853 705.048,156.977 705.349,157.085 C704.786,157.136 704.477,157.191 704.477,157.247 C704.477,157.35 705.485,157.445 707.205,157.526 C707.538,157.566 707.876,157.588 708.221,157.588 C708.279,157.588 708.334,157.577 708.392,157.576 C711.722,157.699 716.87,157.778 722.661,157.778 L722.968,157.778 C726.014,158.94 730.457,159.747 735.53,159.983 C737.447,161.903 741.97,163.251 747.245,163.251 C750.202,163.251 752.916,162.825 755.073,162.114 C757.581,163.145 763.206,163.866 769.755,163.866 C778.636,163.866 787.466,164.174 787.466,162.543 C787.466,160.912 778.636,160.361 769.755,160.361 L769.755,160.361 Z M711.735,156.825 C713.635,155.964 715.168,154.438 716.024,152.535 C716.869,152.982 717.785,153.363 718.748,153.684 C718.721,153.812 718.684,153.939 718.684,154.069 C718.684,155.022 719.441,155.92 720.756,156.72 C717.386,156.731 714.302,156.768 711.735,156.825 L711.735,156.825 Z" id="Fill-116" fill="#FFFFFF"></path>
                    <path d="M769.755,160.361 C766.008,160.361 762.568,158.197 759.834,158.591 C759.898,158.374 759.942,158.154 759.942,157.929 C759.942,156.918 759.258,155.977 758.091,155.172 C758.312,154.814 758.441,154.446 758.441,154.069 C758.441,151.388 752.59,149.13 744.536,148.367 C744.544,148.246 744.555,148.127 744.555,148.005 C744.555,145.483 743.015,143.323 740.824,142.409 C744.776,136.925 735.109,128.694 725.342,132.667 C714.443,125.028 708.109,136.086 710.328,140.74 C709.653,140.568 708.949,140.467 708.221,140.467 C703.755,140.467 700.093,143.889 699.7,148.252 C697.397,148.018 694.882,147.886 692.241,147.886 C689.368,147.886 686.646,148.042 684.183,148.318 C685.434,147.378 686.154,146.332 686.154,145.223 C686.154,142.756 682.678,140.587 677.389,139.285 C679.952,138.261 681.58,136.752 681.58,135.065 C681.58,132.13 676.669,129.729 670.435,129.504 C667.419,124.06 659.292,119.958 649.356,119.128 C648.089,114.263 645.872,110.922 639.244,110.922 C633.42,110.922 630.211,117.59 629.443,117.694 C629.443,111.442 624.916,106.796 619.574,106.796 C607.597,106.796 597.888,114.291 597.888,123.536 C597.888,123.919 597.91,124.297 597.942,124.673 C584.786,126.003 575.061,130.71 575.061,136.314 C575.061,137.845 575.794,139.307 577.118,140.654 C563.714,140.751 552.993,142.982 552.993,145.719 C552.993,148.52 564.204,150.789 578.034,150.789 C579.885,150.789 581.687,150.747 583.423,150.67 C588.333,151.421 596.146,151.908 604.946,151.908 C611.139,151.908 616.838,151.666 621.386,151.262 C624.597,151.675 628.134,151.908 631.858,151.908 C633.515,151.908 635.131,151.858 636.702,151.772 C636.7,151.791 636.694,151.812 636.694,151.832 C636.694,154.852 647.229,157.3 660.225,157.3 C666.506,157.3 672.208,156.727 676.428,155.795 C680.036,156.996 685.767,157.778 692.241,157.778 C696.863,157.778 701.104,157.378 704.472,156.714 C704.756,156.853 705.048,156.977 705.349,157.085 C704.786,157.136 704.477,157.191 704.477,157.247 C704.477,157.35 705.485,157.445 707.205,157.526 C707.538,157.566 707.876,157.588 708.221,157.588 C708.279,157.588 708.334,157.577 708.392,157.576 C711.722,157.699 716.87,157.778 722.661,157.778 L722.968,157.778 C726.014,158.94 730.457,159.747 735.53,159.983 C737.447,161.903 741.97,163.251 747.245,163.251 C750.202,163.251 752.916,162.825 755.073,162.114 C757.581,163.145 763.206,163.866 769.755,163.866 C778.636,163.866 787.466,164.174 787.466,162.543 C787.466,160.912 778.636,160.361 769.755,160.361 L769.755,160.361 Z M711.735,156.825 C713.635,155.964 715.168,154.438 716.024,152.535 C716.869,152.982 717.785,153.363 718.748,153.684 C718.721,153.812 718.684,153.939 718.684,154.069 C718.684,155.022 719.441,155.92 720.756,156.72 C717.386,156.731 714.302,156.768 711.735,156.825 L711.735,156.825 Z" id="Fill-118"></path>
                    <path d="M664.275,146.365 C659.596,146.365 655.541,146.673 653.511,147.125 C655.364,146.416 656.479,145.512 656.479,144.526 C656.479,143.059 654.013,141.774 650.309,141.043 C649.725,137.716 645.773,135.141 640.975,135.141 C640.198,135.141 639.447,135.216 638.725,135.343 C637.75,131.632 633.979,128.864 629.466,128.864 C628.353,128.864 627.288,129.04 626.296,129.35 C623.818,127.193 620.109,125.82 615.96,125.82 C608.5,125.82 602.453,130.248 602.453,135.712 C602.453,137.2 602.914,138.605 603.717,139.87 C594.036,140.56 587.235,142.186 587.235,144.081 C587.235,146.604 599.266,148.648 614.104,148.648 C621.664,148.648 628.487,148.116 633.37,147.262 C634.684,147.722 636.313,148.091 638.164,148.331 C639.052,148.534 639.993,148.648 640.975,148.648 C641.236,148.648 641.494,148.635 641.751,148.619 C642.243,148.637 642.74,148.648 643.247,148.648 C646.777,148.648 649.976,148.214 652.349,147.512 C652.204,147.6 652.123,147.69 652.123,147.782 C652.123,148.564 657.563,149.199 664.275,149.199 C670.987,149.199 676.428,148.564 676.428,147.782 C676.428,146.999 670.987,146.365 664.275,146.365" id="Fill-120" fill="#FFFFFF"></path>
                    <path d="M664.275,146.365 C659.596,146.365 655.541,146.673 653.511,147.125 C655.364,146.416 656.479,145.512 656.479,144.526 C656.479,143.059 654.013,141.774 650.309,141.043 C649.725,137.716 645.773,135.141 640.975,135.141 C640.198,135.141 639.447,135.216 638.725,135.343 C637.75,131.632 633.979,128.864 629.466,128.864 C628.353,128.864 627.288,129.04 626.296,129.35 C623.818,127.193 620.109,125.82 615.96,125.82 C608.5,125.82 602.453,130.248 602.453,135.712 C602.453,137.2 602.914,138.605 603.717,139.87 C594.036,140.56 587.235,142.186 587.235,144.081 C587.235,146.604 599.266,148.648 614.104,148.648 C621.664,148.648 628.487,148.116 633.37,147.262 C634.684,147.722 636.313,148.091 638.164,148.331 C639.052,148.534 639.993,148.648 640.975,148.648 C641.236,148.648 641.494,148.635 641.751,148.619 C642.243,148.637 642.74,148.648 643.247,148.648 C646.777,148.648 649.976,148.214 652.349,147.512 C652.204,147.6 652.123,147.69 652.123,147.782 C652.123,148.564 657.563,149.199 664.275,149.199 C670.987,149.199 676.428,148.564 676.428,147.782 C676.428,146.999 670.987,146.365 664.275,146.365" id="Fill-122"></path>
                    <path d="M748.128,152.724 C748.128,151.047 745.63,149.689 742.549,149.689 C739.467,149.689 736.97,151.047 736.97,152.724 C736.97,152.744 736.975,152.762 736.976,152.782 C736.502,152.744 736.016,152.724 735.517,152.724 C735.385,152.724 735.257,152.73 735.127,152.732 C737.293,151.977 738.877,149.581 738.877,146.74 C738.877,143.291 736.548,140.495 733.674,140.495 C732.244,140.495 730.949,141.189 730.009,142.309 C728.94,141.192 727.45,140.495 725.799,140.495 C722.958,140.495 720.589,142.549 720.035,145.281 C718.996,145.736 718.298,146.54 718.298,147.464 C718.298,147.692 718.348,147.91 718.427,148.119 C717.385,147.832 716.152,147.664 714.825,147.664 C711.122,147.664 708.119,148.958 708.119,150.556 C708.119,152.153 711.122,153.447 714.825,153.447 C715.188,153.447 715.54,153.431 715.886,153.408 C717.513,154.398 720.516,155.065 723.961,155.065 C725.558,155.065 727.052,154.917 728.366,154.664 C727.987,155.035 727.776,155.441 727.776,155.868 C727.776,157.604 731.242,159.011 735.517,159.011 C739.792,159.011 743.257,157.604 743.257,155.868 C743.257,155.823 743.245,155.779 743.24,155.734 C745.994,155.548 748.128,154.272 748.128,152.724 L748.128,152.724 Z M732.642,152.951 C732.671,152.924 732.712,152.901 732.739,152.874 C732.803,152.888 732.867,152.896 732.931,152.908 C732.834,152.921 732.737,152.935 732.642,152.951 L732.642,152.951 Z" id="Fill-124" fill="#FFFFFF"></path>
                    <path d="M748.128,152.724 C748.128,151.047 745.63,149.689 742.549,149.689 C739.467,149.689 736.97,151.047 736.97,152.724 C736.97,152.744 736.975,152.762 736.976,152.782 C736.502,152.744 736.016,152.724 735.517,152.724 C735.385,152.724 735.257,152.73 735.127,152.732 C737.293,151.977 738.877,149.581 738.877,146.74 C738.877,143.291 736.548,140.495 733.674,140.495 C732.244,140.495 730.949,141.189 730.009,142.309 C728.94,141.192 727.45,140.495 725.799,140.495 C722.958,140.495 720.589,142.549 720.035,145.281 C718.996,145.736 718.298,146.54 718.298,147.464 C718.298,147.692 718.348,147.91 718.427,148.119 C717.385,147.832 716.152,147.664 714.825,147.664 C711.122,147.664 708.119,148.958 708.119,150.556 C708.119,152.153 711.122,153.447 714.825,153.447 C715.188,153.447 715.54,153.431 715.886,153.408 C717.513,154.398 720.516,155.065 723.961,155.065 C725.558,155.065 727.052,154.917 728.366,154.664 C727.987,155.035 727.776,155.441 727.776,155.868 C727.776,157.604 731.242,159.011 735.517,159.011 C739.792,159.011 743.257,157.604 743.257,155.868 C743.257,155.823 743.245,155.779 743.24,155.734 C745.994,155.548 748.128,154.272 748.128,152.724 L748.128,152.724 Z M732.642,152.951 C732.671,152.924 732.712,152.901 732.739,152.874 C732.803,152.888 732.867,152.896 732.931,152.908 C732.834,152.921 732.737,152.935 732.642,152.951 L732.642,152.951 Z" id="Fill-126"></path>
                    <path d="M819.584,219.426 C818.987,219.426 818.41,219.44 817.847,219.46 C818.227,218.97 818.442,218.428 818.442,217.856 C818.442,215.699 815.447,213.951 811.751,213.951 C809.334,213.951 807.223,214.701 806.047,215.821 C805.382,215.712 804.675,215.654 803.94,215.654 C803.139,215.654 802.369,215.727 801.649,215.856 C801.989,215.273 802.181,214.653 802.181,214.006 C802.181,211.053 798.334,208.611 793.305,208.158 C793.063,205.989 790.123,204.275 786.521,204.275 C782.762,204.275 779.715,206.141 779.715,208.444 C779.715,208.62 779.738,208.793 779.773,208.964 C779.297,208.939 778.812,208.924 778.315,208.924 C775.391,208.924 772.759,209.367 770.893,210.073 C770.997,209.702 771.063,209.32 771.063,208.924 C771.063,206.007 768.021,203.643 764.271,203.643 C760.519,203.643 757.479,206.007 757.479,208.924 C757.479,209.456 757.582,209.969 757.77,210.453 C754.057,210.644 750.887,211.789 749.139,213.415 C747.887,212.892 746.247,212.571 744.447,212.571 C740.594,212.571 737.465,214.027 737.351,215.841 L737.34,215.841 C731.631,215.841 727.002,217.397 727.002,219.315 C727.002,221.234 731.631,222.789 737.34,222.789 C737.94,222.789 738.526,222.768 739.099,222.736 C739.614,225.973 744.543,228.512 750.554,228.512 C756.907,228.512 762.059,225.676 762.059,222.176 C762.059,222.094 762.041,222.015 762.036,221.934 C762.327,221.889 762.611,221.835 762.891,221.779 C765.451,222.377 769.019,222.75 772.97,222.75 C780.757,222.75 787.069,221.307 787.069,219.526 C787.069,219.463 787.052,219.403 787.036,219.342 C788.426,219.719 789.977,219.937 791.624,219.937 C793.519,219.937 795.291,219.654 796.827,219.162 C796.816,219.25 796.804,219.337 796.804,219.426 C796.804,221.509 799.999,223.199 803.94,223.199 C805.225,223.199 806.424,223.018 807.464,222.704 C808.322,223.157 809.779,223.454 811.432,223.454 C813.6,223.454 815.427,222.943 816.013,222.243 C817.1,222.33 818.307,222.381 819.584,222.381 C824.28,222.381 828.088,221.719 828.088,220.904 C828.088,220.088 824.28,219.426 819.584,219.426" id="Fill-128" fill="#FFFFFF"></path>
                    <path d="M819.584,219.426 C818.987,219.426 818.41,219.44 817.847,219.46 C818.227,218.97 818.442,218.428 818.442,217.856 C818.442,215.699 815.447,213.951 811.751,213.951 C809.334,213.951 807.223,214.701 806.047,215.821 C805.382,215.712 804.675,215.654 803.94,215.654 C803.139,215.654 802.369,215.727 801.649,215.856 C801.989,215.273 802.181,214.653 802.181,214.006 C802.181,211.053 798.334,208.611 793.305,208.158 C793.063,205.989 790.123,204.275 786.521,204.275 C782.762,204.275 779.715,206.141 779.715,208.444 C779.715,208.62 779.738,208.793 779.773,208.964 C779.297,208.939 778.812,208.924 778.315,208.924 C775.391,208.924 772.759,209.367 770.893,210.073 C770.997,209.702 771.063,209.32 771.063,208.924 C771.063,206.007 768.021,203.643 764.271,203.643 C760.519,203.643 757.479,206.007 757.479,208.924 C757.479,209.456 757.582,209.969 757.77,210.453 C754.057,210.644 750.887,211.789 749.139,213.415 C747.887,212.892 746.247,212.571 744.447,212.571 C740.594,212.571 737.465,214.027 737.351,215.841 L737.34,215.841 C731.631,215.841 727.002,217.397 727.002,219.315 C727.002,221.234 731.631,222.789 737.34,222.789 C737.94,222.789 738.526,222.768 739.099,222.736 C739.614,225.973 744.543,228.512 750.554,228.512 C756.907,228.512 762.059,225.676 762.059,222.176 C762.059,222.094 762.041,222.015 762.036,221.934 C762.327,221.889 762.611,221.835 762.891,221.779 C765.451,222.377 769.019,222.75 772.97,222.75 C780.757,222.75 787.069,221.307 787.069,219.526 C787.069,219.463 787.052,219.403 787.036,219.342 C788.426,219.719 789.977,219.937 791.624,219.937 C793.519,219.937 795.291,219.654 796.827,219.162 C796.816,219.25 796.804,219.337 796.804,219.426 C796.804,221.509 799.999,223.199 803.94,223.199 C805.225,223.199 806.424,223.018 807.464,222.704 C808.322,223.157 809.779,223.454 811.432,223.454 C813.6,223.454 815.427,222.943 816.013,222.243 C817.1,222.33 818.307,222.381 819.584,222.381 C824.28,222.381 828.088,221.719 828.088,220.904 C828.088,220.088 824.28,219.426 819.584,219.426" id="Fill-130"></path>
                    <path d="M253.973,77.719 C251.73,75.477 245.325,74.781 241.875,78.229 C242.319,77.533 242.564,76.795 242.564,76.03 C242.564,71.829 236.949,68.043 232.104,70.197 C228.874,63.468 223.085,68.559 221.512,68.803 C222.016,67.86 222.281,66.882 222.281,65.881 C222.281,58.441 207.695,52.322 189.001,51.582 C189.779,50.293 190.224,48.827 190.224,47.267 C190.224,42.149 185.481,37.999 179.631,37.999 C179.235,37.999 178.846,38.022 178.461,38.059 C180.69,29.376 164.192,10.977 134.813,22.787 C134.512,22.909 134.175,22.806 133.852,22.809 C136.926,20.417 142.436,17.15 138.827,13.542 C138.827,6.218 131.023,0.281 121.396,0.281 C115.36,0.281 110.043,2.616 106.914,6.162 C105.364,5.45 103.609,5.039 101.744,5.039 C95.955,5.039 91.192,8.92 90.53,13.92 C88.042,13.649 85.476,13.492 82.838,13.492 C61.369,13.492 43.964,22.95 43.964,34.62 C43.964,37.844 45.299,40.899 47.676,43.633 C40.169,45.7 34.128,49.063 30.57,53.162 C29.458,52.923 28.282,52.789 27.061,52.789 C20.294,52.789 14.808,56.763 14.808,61.663 C14.808,63.701 15.766,65.572 17.36,67.07 C7.5,68.604 0.863,71.471 0.863,74.758 C0.863,79.661 15.62,83.635 33.822,83.635 C42.319,83.635 50.064,82.768 55.909,81.346 C58.85,81.736 61.924,81.945 65.091,81.945 C75.646,81.945 85.193,79.651 92.084,75.949 C98.608,78.638 106.979,80.254 116.108,80.254 C119.352,80.254 122.491,80.039 125.495,79.656 C130.785,81.558 140.671,82.839 152.003,82.839 C162.75,82.839 172.197,81.687 177.658,79.945 C180.096,80.14 182.609,80.254 185.196,80.254 C194.974,80.254 200.538,82.11 207.164,79.713 C207.562,83.744 217.895,83.635 226.507,83.635 C229.945,83.635 233.122,83.119 235.734,82.247 C239.547,83.079 246.28,83.635 253.973,83.635 C265.875,83.635 273.04,82.912 271.884,81.757 C270.844,80.717 262.388,77.719 253.973,77.719 L253.973,77.719 Z M149.554,70.135 C149.594,70.097 149.641,70.06 149.68,70.022 C149.709,70.059 149.748,70.095 149.778,70.131 C149.703,70.133 149.628,70.134 149.554,70.135 L149.554,70.135 Z M153.352,58.514 C153.327,58.437 153.308,58.36 153.282,58.284 C153.51,58.24 153.726,58.188 153.952,58.142 C153.748,58.266 153.545,58.389 153.352,58.514 L153.352,58.514 Z M169.779,52.809 C170.104,52.635 170.419,52.456 170.73,52.278 C170.816,52.395 170.905,52.509 170.997,52.622 C170.594,52.688 170.174,52.739 169.779,52.809 L169.779,52.809 Z" id="Fill-132" fill="#FFFFFF"></path>
                    <path d="M253.973,77.719 C251.73,75.477 245.325,74.781 241.875,78.229 C242.319,77.533 242.564,76.795 242.564,76.03 C242.564,71.829 236.949,68.043 232.104,70.197 C228.874,63.468 223.085,68.559 221.512,68.803 C222.016,67.86 222.281,66.882 222.281,65.881 C222.281,58.441 207.695,52.322 189.001,51.582 C189.779,50.293 190.224,48.827 190.224,47.267 C190.224,42.149 185.481,37.999 179.631,37.999 C179.235,37.999 178.846,38.022 178.461,38.059 C180.69,29.376 164.192,10.977 134.813,22.787 C134.512,22.909 134.175,22.806 133.852,22.809 C136.926,20.417 142.436,17.15 138.827,13.542 C138.827,6.218 131.023,0.281 121.396,0.281 C115.36,0.281 110.043,2.616 106.914,6.162 C105.364,5.45 103.609,5.039 101.744,5.039 C95.955,5.039 91.192,8.92 90.53,13.92 C88.042,13.649 85.476,13.492 82.838,13.492 C61.369,13.492 43.964,22.95 43.964,34.62 C43.964,37.844 45.299,40.899 47.676,43.633 C40.169,45.7 34.128,49.063 30.57,53.162 C29.458,52.923 28.282,52.789 27.061,52.789 C20.294,52.789 14.808,56.763 14.808,61.663 C14.808,63.701 15.766,65.572 17.36,67.07 C7.5,68.604 0.863,71.471 0.863,74.758 C0.863,79.661 15.62,83.635 33.822,83.635 C42.319,83.635 50.064,82.768 55.909,81.346 C58.85,81.736 61.924,81.945 65.091,81.945 C75.646,81.945 85.193,79.651 92.084,75.949 C98.608,78.638 106.979,80.254 116.108,80.254 C119.352,80.254 122.491,80.039 125.495,79.656 C130.785,81.558 140.671,82.839 152.003,82.839 C162.75,82.839 172.197,81.687 177.658,79.945 C180.096,80.14 182.609,80.254 185.196,80.254 C194.974,80.254 200.538,82.11 207.164,79.713 C207.562,83.744 217.895,83.635 226.507,83.635 C229.945,83.635 233.122,83.119 235.734,82.247 C239.547,83.079 246.28,83.635 253.973,83.635 C265.875,83.635 273.04,82.912 271.884,81.757 C270.844,80.717 262.388,77.719 253.973,77.719 L253.973,77.719 Z M149.554,70.135 C149.594,70.097 149.641,70.06 149.68,70.022 C149.709,70.059 149.748,70.095 149.778,70.131 C149.703,70.133 149.628,70.134 149.554,70.135 L149.554,70.135 Z M153.352,58.514 C153.327,58.437 153.308,58.36 153.282,58.284 C153.51,58.24 153.726,58.188 153.952,58.142 C153.748,58.266 153.545,58.389 153.352,58.514 L153.352,58.514 Z M169.779,52.809 C170.104,52.635 170.419,52.456 170.73,52.278 C170.816,52.395 170.905,52.509 170.997,52.622 C170.594,52.688 170.174,52.739 169.779,52.809 L169.779,52.809 Z" id="Fill-134"></path>
                    <path d="M188.332,68.629 C187.435,68.629 186.567,68.661 185.72,68.709 C186.291,67.543 186.615,66.255 186.615,64.894 C186.615,59.764 182.109,55.609 176.548,55.609 C172.913,55.609 169.736,57.391 167.967,60.055 C166.967,59.798 165.903,59.658 164.799,59.658 C163.592,59.658 162.434,59.832 161.353,60.14 C161.863,58.753 162.15,57.278 162.15,55.74 C162.15,48.718 156.365,42.91 148.797,41.832 C148.435,36.674 144.011,32.6 138.594,32.6 C132.938,32.6 128.353,37.038 128.353,42.514 C128.353,42.933 128.388,43.345 128.441,43.751 C127.724,43.691 126.994,43.654 126.248,43.654 C121.848,43.654 117.889,44.707 115.08,46.386 C115.239,45.506 115.336,44.597 115.336,43.654 C115.336,36.719 110.762,31.096 105.118,31.096 C99.474,31.096 94.901,36.719 94.901,43.654 C94.901,44.921 95.057,46.14 95.339,47.292 C89.753,47.744 84.983,50.468 82.354,54.335 C80.47,53.091 78.004,52.327 75.296,52.327 C69.5,52.327 64.793,55.788 64.62,60.105 L64.604,60.105 C56.015,60.105 49.051,63.803 49.051,68.364 C49.051,72.928 56.015,76.627 64.604,76.627 C65.508,76.627 66.389,76.576 67.25,76.499 C68.025,84.197 75.44,90.235 84.483,90.235 C94.042,90.235 101.79,83.491 101.79,75.167 C101.79,74.973 101.765,74.786 101.758,74.593 C102.195,74.485 102.623,74.357 103.043,74.223 C106.895,75.645 112.261,76.534 118.205,76.534 C129.92,76.534 139.417,73.102 139.417,68.867 C139.417,68.718 139.391,68.573 139.367,68.429 C141.458,69.325 143.792,69.843 146.269,69.843 C149.119,69.843 151.786,69.17 154.098,68.001 C154.081,68.21 154.062,68.417 154.062,68.629 C154.062,73.582 158.869,77.599 164.799,77.599 C166.729,77.599 168.535,77.17 170.099,76.425 C171.39,77.499 173.582,78.209 176.068,78.209 C179.33,78.209 182.079,76.992 182.96,75.326 C184.596,75.535 186.412,75.656 188.332,75.656 C195.397,75.656 201.126,74.081 201.126,72.142 C201.126,70.204 195.397,68.629 188.332,68.629" id="Fill-136" fill="#FFFFFF"></path>
                    <path d="M188.332,68.629 C187.435,68.629 186.567,68.661 185.72,68.709 C186.291,67.543 186.615,66.255 186.615,64.894 C186.615,59.764 182.109,55.609 176.548,55.609 C172.913,55.609 169.736,57.391 167.967,60.055 C166.967,59.798 165.903,59.658 164.799,59.658 C163.592,59.658 162.434,59.832 161.353,60.14 C161.863,58.753 162.15,57.278 162.15,55.74 C162.15,48.718 156.365,42.91 148.797,41.832 C148.435,36.674 144.011,32.6 138.594,32.6 C132.938,32.6 128.353,37.038 128.353,42.514 C128.353,42.933 128.388,43.345 128.441,43.751 C127.724,43.691 126.994,43.654 126.248,43.654 C121.848,43.654 117.889,44.707 115.08,46.386 C115.239,45.506 115.336,44.597 115.336,43.654 C115.336,36.719 110.762,31.096 105.118,31.096 C99.474,31.096 94.901,36.719 94.901,43.654 C94.901,44.921 95.057,46.14 95.339,47.292 C89.753,47.744 84.983,50.468 82.354,54.335 C80.47,53.091 78.004,52.327 75.296,52.327 C69.5,52.327 64.793,55.788 64.62,60.105 L64.604,60.105 C56.015,60.105 49.051,63.803 49.051,68.364 C49.051,72.928 56.015,76.627 64.604,76.627 C65.508,76.627 66.389,76.576 67.25,76.499 C68.025,84.197 75.44,90.235 84.483,90.235 C94.042,90.235 101.79,83.491 101.79,75.167 C101.79,74.973 101.765,74.786 101.758,74.593 C102.195,74.485 102.623,74.357 103.043,74.223 C106.895,75.645 112.261,76.534 118.205,76.534 C129.92,76.534 139.417,73.102 139.417,68.867 C139.417,68.718 139.391,68.573 139.367,68.429 C141.458,69.325 143.792,69.843 146.269,69.843 C149.119,69.843 151.786,69.17 154.098,68.001 C154.081,68.21 154.062,68.417 154.062,68.629 C154.062,73.582 158.869,77.599 164.799,77.599 C166.729,77.599 168.535,77.17 170.099,76.425 C171.39,77.499 173.582,78.209 176.068,78.209 C179.33,78.209 182.079,76.992 182.96,75.326 C184.596,75.535 186.412,75.656 188.332,75.656 C195.397,75.656 201.126,74.081 201.126,72.142 C201.126,70.204 195.397,68.629 188.332,68.629" id="Fill-138"></path>
                    <path d="M245.129,89.837 C245.342,89.598 245.463,89.352 245.463,89.099 C245.463,86.917 237.172,85.149 226.945,85.149 C223.637,85.149 220.538,85.336 217.851,85.66 C217.271,80.237 214.408,76.112 210.953,76.112 C210.808,76.112 210.665,76.133 210.521,76.148 C208.09,71.292 202.805,67.917 196.657,67.917 C188.209,67.917 181.36,74.277 181.36,82.121 C181.36,83.023 181.478,83.895 181.653,84.748 C180.368,84.7 179.032,84.671 177.65,84.671 C168.435,84.671 160.964,85.813 160.964,87.221 C160.964,88.112 163.965,88.896 168.502,89.351 C166.045,89.71 164.513,90.21 164.513,90.765 C164.513,91.855 170.407,92.738 177.677,92.738 C177.703,92.738 177.728,92.737 177.753,92.737 C177.751,92.748 177.747,92.759 177.746,92.771 C158.677,93.219 144.21,95.388 144.21,97.996 C144.21,100.93 162.501,103.309 185.063,103.309 C194.6,103.309 203.366,102.883 210.317,102.17 C212.735,103.43 215.972,104.202 219.535,104.202 C227.016,104.202 233.08,100.809 233.08,96.621 C233.08,96.45 233.068,96.28 233.048,96.11 C235.602,96.432 238.6,96.621 241.82,96.621 C251.074,96.621 258.575,95.087 258.575,93.196 C258.575,91.535 252.797,90.152 245.129,89.837" id="Fill-140" fill="#FFFFFF"></path>
                    <path d="M245.129,89.837 C245.342,89.598 245.463,89.352 245.463,89.099 C245.463,86.917 237.172,85.149 226.945,85.149 C223.637,85.149 220.538,85.336 217.851,85.66 C217.271,80.237 214.408,76.112 210.953,76.112 C210.808,76.112 210.665,76.133 210.521,76.148 C208.09,71.292 202.805,67.917 196.657,67.917 C188.209,67.917 181.36,74.277 181.36,82.121 C181.36,83.023 181.478,83.895 181.653,84.748 C180.368,84.7 179.032,84.671 177.65,84.671 C168.435,84.671 160.964,85.813 160.964,87.221 C160.964,88.112 163.965,88.896 168.502,89.351 C166.045,89.71 164.513,90.21 164.513,90.765 C164.513,91.855 170.407,92.738 177.677,92.738 C177.703,92.738 177.728,92.737 177.753,92.737 C177.751,92.748 177.747,92.759 177.746,92.771 C158.677,93.219 144.21,95.388 144.21,97.996 C144.21,100.93 162.501,103.309 185.063,103.309 C194.6,103.309 203.366,102.883 210.317,102.17 C212.735,103.43 215.972,104.202 219.535,104.202 C227.016,104.202 233.08,100.809 233.08,96.621 C233.08,96.45 233.068,96.28 233.048,96.11 C235.602,96.432 238.6,96.621 241.82,96.621 C251.074,96.621 258.575,95.087 258.575,93.196 C258.575,91.535 252.797,90.152 245.129,89.837" id="Fill-142"></path>
                    <path d="M102.671,171.578 C107.388,170.754 110.406,169.499 110.406,168.09 C110.406,165.61 101.062,163.598 89.535,163.598 C88.387,163.598 87.27,163.624 86.173,163.662 C84.377,160.394 77.226,157.949 68.662,157.949 C58.746,157.949 50.706,161.223 50.706,165.265 C50.706,165.299 50.719,165.332 50.719,165.367 C50.163,165.349 49.601,165.337 49.026,165.337 C41.489,165.337 35.378,166.866 35.378,168.751 C35.378,169.101 35.591,169.44 35.983,169.757 C32.763,170.518 30.806,171.502 30.806,172.581 C30.806,172.906 30.991,173.222 31.325,173.523 C18.855,173.738 9.76,174.403 9.76,175.19 C9.76,176.149 23.277,176.928 39.952,176.928 C42.931,176.928 45.805,176.904 48.52,176.858 C49.752,176.901 51.012,176.928 52.305,176.928 C56.5,176.928 60.399,176.682 63.706,176.263 C64.723,176.189 65.634,176.109 66.432,176.026 C71.938,176.58 79.776,176.928 88.482,176.928 C105.14,176.928 118.643,175.658 118.643,174.088 C118.643,173.001 112.175,172.057 102.671,171.578" id="Fill-144" fill="#FFFFFF"></path>
                    <path d="M102.671,171.578 C107.388,170.754 110.406,169.499 110.406,168.09 C110.406,165.61 101.062,163.598 89.535,163.598 C88.387,163.598 87.27,163.624 86.173,163.662 C84.377,160.394 77.226,157.949 68.662,157.949 C58.746,157.949 50.706,161.223 50.706,165.265 C50.706,165.299 50.719,165.332 50.719,165.367 C50.163,165.349 49.601,165.337 49.026,165.337 C41.489,165.337 35.378,166.866 35.378,168.751 C35.378,169.101 35.591,169.44 35.983,169.757 C32.763,170.518 30.806,171.502 30.806,172.581 C30.806,172.906 30.991,173.222 31.325,173.523 C18.855,173.738 9.76,174.403 9.76,175.19 C9.76,176.149 23.277,176.928 39.952,176.928 C42.931,176.928 45.805,176.904 48.52,176.858 C49.752,176.901 51.012,176.928 52.305,176.928 C56.5,176.928 60.399,176.682 63.706,176.263 C64.723,176.189 65.634,176.109 66.432,176.026 C71.938,176.58 79.776,176.928 88.482,176.928 C105.14,176.928 118.643,175.658 118.643,174.088 C118.643,173.001 112.175,172.057 102.671,171.578" id="Fill-146"></path>
                    <path d="M606.914,232.871 C604.986,232.871 603.232,232.918 601.9,232.994 C602.324,232.825 602.561,232.642 602.561,232.45 C602.561,231.734 599.352,231.139 595.111,231.012 C595.148,230.915 595.178,230.817 595.178,230.716 C595.178,229.758 593.455,228.981 591.326,228.981 C591.207,228.981 591.094,228.993 590.977,228.997 C589.955,228.261 587.848,227.749 585.389,227.749 C585.01,227.749 584.646,227.766 584.285,227.789 C583.434,226.524 580.672,225.592 577.361,225.592 C574.32,225.592 571.729,226.377 570.664,227.485 C570.588,227.462 570.508,227.443 570.428,227.422 C570.557,227.229 570.629,227.03 570.629,226.825 C570.629,225.25 566.604,223.973 561.637,223.973 C556.697,223.973 552.691,225.237 552.65,226.801 C550.123,227.086 548.316,227.812 548.316,228.672 C548.316,229.779 551.299,230.677 554.977,230.677 C557.451,230.677 559.586,230.265 560.734,229.663 C561.031,229.672 561.332,229.677 561.637,229.677 C562.377,229.677 563.094,229.645 563.783,229.592 C564.092,230.639 565.947,231.447 568.215,231.447 C569.73,231.447 571.064,231.085 571.879,230.532 C573.205,231.181 575.154,231.601 577.361,231.601 C578.447,231.601 579.465,231.495 580.391,231.316 C581.348,231.773 582.783,232.084 584.428,232.177 C584.324,232.265 584.264,232.356 584.264,232.45 C584.264,233.259 588.359,233.914 593.412,233.914 C595.889,233.914 598.131,233.756 599.777,233.501 C600.771,233.69 603.588,233.828 606.914,233.828 C611.07,233.828 614.438,233.613 614.438,233.349 C614.438,233.086 611.07,232.871 606.914,232.871" id="Fill-148" fill="#FFFFFF"></path>
                    <path d="M606.914,232.871 C604.986,232.871 603.232,232.918 601.9,232.994 C602.324,232.825 602.561,232.642 602.561,232.45 C602.561,231.734 599.352,231.139 595.111,231.012 C595.148,230.915 595.178,230.817 595.178,230.716 C595.178,229.758 593.455,228.981 591.326,228.981 C591.207,228.981 591.094,228.993 590.977,228.997 C589.955,228.261 587.848,227.749 585.389,227.749 C585.01,227.749 584.646,227.766 584.285,227.789 C583.434,226.524 580.672,225.592 577.361,225.592 C574.32,225.592 571.729,226.377 570.664,227.485 C570.588,227.462 570.508,227.443 570.428,227.422 C570.557,227.229 570.629,227.03 570.629,226.825 C570.629,225.25 566.604,223.973 561.637,223.973 C556.697,223.973 552.691,225.237 552.65,226.801 C550.123,227.086 548.316,227.812 548.316,228.672 C548.316,229.779 551.299,230.677 554.977,230.677 C557.451,230.677 559.586,230.265 560.734,229.663 C561.031,229.672 561.332,229.677 561.637,229.677 C562.377,229.677 563.094,229.645 563.783,229.592 C564.092,230.639 565.947,231.447 568.215,231.447 C569.73,231.447 571.064,231.085 571.879,230.532 C573.205,231.181 575.154,231.601 577.361,231.601 C578.447,231.601 579.465,231.495 580.391,231.316 C581.348,231.773 582.783,232.084 584.428,232.177 C584.324,232.265 584.264,232.356 584.264,232.45 C584.264,233.259 588.359,233.914 593.412,233.914 C595.889,233.914 598.131,233.756 599.777,233.501 C600.771,233.69 603.588,233.828 606.914,233.828 C611.07,233.828 614.438,233.613 614.438,233.349 C614.438,233.086 611.07,232.871 606.914,232.871" id="Fill-150"></path>
                </g>
            </g>
        </g>
    </g>
</svg>