<?xml version="1.0" encoding="UTF-8" standalone="no"?>
<svg width="842px" height="268px" viewBox="0 0 842 268" version="1.1" xmlns="http://www.w3.org/2000/svg" xmlns:xlink="http://www.w3.org/1999/xlink">
    <!-- Generator: Sketch 39.1 (31720) - http://www.bohemiancoding.com/sketch -->
    <title>fg</title>
    <desc>Created with Sketch.</desc>
    <defs></defs>
    <g id="Page-1" stroke="none" stroke-width="1" fill="none" fill-rule="evenodd">
        <g id="shutterstock_218396899" transform="translate(0.000000, -310.000000)">
            <g id="fg" transform="translate(0.000000, 310.000000)">
                <path d="M0,118 L741.400068,118 C741.400068,118 791.552202,141.645332 795.810486,141.645332 L842,141.645332 L842,268 L0,268 L0,118 Z" id="Rectangle" fill="#A2C671"></path>
                <g id="slopes" transform="translate(0.000000, 91.000000)">
                    <path d="M841.89,119.968 L841.89,147.176 C809.027,148.984 799.785,148.92 768.211,152.883 C772.232,154.346 773.092,155.857 770.895,155.857 C763.1,155.857 731.863,156.678 710.458,157.538 C701.132,157.913 723.01,164.503 712.555,165.366 C642.955,171.107 618.447,170.428 591.407,170.816 C591.407,170.816 552.02,142.269 534.398,126.702 C578.243,109.265 759.676,101.477 841.89,119.968" id="Fill-347" fill="#93BA70"></path>
                    <path d="M841.89,119.968 L841.89,147.176 C809.027,148.984 799.785,148.92 768.211,152.883 C772.232,154.346 773.092,155.857 770.895,155.857 C763.1,155.857 731.863,156.678 710.458,157.538 C701.132,157.913 723.01,164.503 712.555,165.366 C642.955,171.107 618.447,170.428 591.407,170.816 C591.407,170.816 552.02,142.269 534.398,126.702 C578.243,109.265 759.676,101.477 841.89,119.968" id="Fill-349"></path>
                    <path d="M0,7.552 C0,7.552 140.102,-3.522 156.482,1.938 C172.862,7.398 417.047,60.663 432.662,66.934 C505.206,96.065 595.779,174.716 595.779,174.716 C595.779,174.716 245.288,55.896 209.798,55.896 C174.308,55.896 0,31.326 0,31.326 L0,7.552" id="Fill-343" fill="#759758"></path>
                    <path d="M0,7.552 C0,7.552 140.102,-3.522 156.482,1.938 C172.862,7.398 417.047,60.663 432.662,66.934 C505.206,96.065 595.779,174.716 595.779,174.716 C595.779,174.716 245.288,55.896 209.798,55.896 C174.308,55.896 0,31.326 0,31.326 L0,7.552" id="Fill-345"></path>
                </g>
                <g id="green-mountains">
                    <path d="M507.459,0.051 C507.459,0.051 504.552,2.959 500.351,7.161 C495.073,9.018 489.363,6.282 485.486,6.282 C481.609,6.282 477.085,15.562 473.208,19.44 C469.33,23.317 458.99,25.902 455.112,25.902 C451.234,25.902 434.432,20.733 434.432,20.733 C434.432,20.733 425.061,23.64 422.799,25.902 C420.538,28.163 411.166,29.133 411.166,29.133 L394.04,38.503 C394.04,38.503 389.192,43.351 384.669,43.351 C380.145,43.351 367.219,43.351 362.695,47.875 C358.172,52.399 343.955,47.875 343.955,47.875 C343.955,47.875 334.735,50.631 329.737,53.044 C327.408,54.168 324.889,57.891 320.688,62.092 C316.488,66.293 298.716,65.971 294.192,65.971 C289.668,65.971 277.55,79.38 274.804,76.634 C272.057,73.887 258.647,72.111 254.447,72.111 C250.247,72.111 240.912,76.366 240.912,76.366 C240.912,76.366 233.928,74.209 230.211,77.926 C226.495,81.642 203.715,77.926 203.715,77.926 C203.715,77.926 179.634,83.911 176.403,83.911 C173.171,83.911 166.667,77.926 166.667,77.926 C166.667,77.926 164.177,75.397 158.476,73.727 C133.941,66.537 97.388,67.058 65.569,69.623 C30.722204,72.4329898 1.55323317,53.1397801 0.0599999986,52.1346315 L0.06,52.1346315 L0.06,0.051 L507.459,0.051 L507.459,0.051 Z M0.06,98.5357638 C0.0200471554,98.546479 0,98.552 0,98.552 L0,52.094 C0,52.094 0.0201394777,52.1077999 0.0599999986,52.1346315 L0.06,98.5357638 L0.06,98.5357638 Z" id="Clip-352"></path>
                    <path d="M0,52.094 C0,52.094 29.792,72.508 65.569,69.623 C97.388,67.058 133.941,66.537 158.476,73.727 C164.177,75.397 166.667,77.926 166.667,77.926 C166.667,77.926 173.171,83.911 176.403,83.911 C179.634,83.911 203.715,77.926 203.715,77.926 C203.715,77.926 226.495,81.642 230.211,77.926 C233.928,74.209 240.912,76.366 240.912,76.366 C240.912,76.366 250.247,72.111 254.447,72.111 C258.647,72.111 272.057,73.887 274.804,76.634 C277.55,79.38 289.668,65.971 294.192,65.971 C298.716,65.971 316.488,66.293 320.688,62.092 C324.889,57.891 327.408,54.168 329.737,53.044 C334.735,50.631 343.955,47.875 343.955,47.875 C343.955,47.875 358.172,52.399 362.695,47.875 C367.219,43.351 380.145,43.351 384.669,43.351 C389.192,43.351 394.04,38.503 394.04,38.503 L411.166,29.133 C411.166,29.133 420.538,28.163 422.799,25.902 C425.061,23.64 434.432,20.733 434.432,20.733 C434.432,20.733 451.234,25.902 455.112,25.902 C458.99,25.902 469.33,23.317 473.208,19.44 C477.085,15.562 481.609,6.282 485.486,6.282 C489.363,6.282 495.073,9.018 500.351,7.161 C504.552,2.959 507.459,0.051 507.459,0.051 C507.459,0.051 522.97,3.283 526.848,3.283 C530.725,3.283 549.466,20.085 555.93,20.085 C562.392,20.085 583.719,38.827 586.949,38.827 C590.183,38.827 602.783,45.936 602.783,51.429 C602.783,56.923 613.447,53.044 617.972,53.044 C622.495,53.044 625.081,42.705 628.958,46.582 C632.835,50.459 643.539,51.83 648.063,56.355 C650.077,58.369 665.316,67.678 681.429,79.827 C687.77,83.241 689.063,80.323 695.143,83.641 C707.302,90.276 733.303,92.844 735.454,94.995 C736.922,96.463 752.013,115.806 749.194,118.624 C746.376,121.443 771.144,117.885 778.094,120.521 C789.374,116.224 789.374,116.224 802.024,117.388 C819.47,127.744 841.893,114.545 841.893,114.545 L841.889,232.099 C841.889,232.099 822.535,234.008 815.935,234.008 C809.334,234.008 801.353,232.438 789.505,232.438 C783.323,232.896 773.34,233.757 767.787,234.101 C749.186,235.251 749.186,235.251 731.87,231.796 C732.89,235.276 690.66,233.873 696.026,241.947 C678.422,233.021 659.9,228.066 636.484,222.715 C664.85,239.279 641.627,233.896 638.398,236.584 C630.146,243.456 547.902,216.835 547.902,227.731 C517.791,219.33 441.674,163.183 399.867,153.967 C385.187,150.731 138.082,98.479 118.047,95.895 C44.237,86.369 0,98.552 0,98.552 L0,52.094" id="Fill-351" fill="#688C66"></path>
                    <path d="M0,52.094 C0,52.094 29.792,72.508 65.569,69.623 C97.388,67.058 133.941,66.537 158.476,73.727 C164.177,75.397 166.667,77.926 166.667,77.926 C166.667,77.926 173.171,83.911 176.403,83.911 C179.634,83.911 203.715,77.926 203.715,77.926 C203.715,77.926 226.495,81.642 230.211,77.926 C233.928,74.209 240.912,76.366 240.912,76.366 C240.912,76.366 250.247,72.111 254.447,72.111 C258.647,72.111 272.057,73.887 274.804,76.634 C277.55,79.38 289.668,65.971 294.192,65.971 C298.716,65.971 316.488,66.293 320.688,62.092 C324.889,57.891 327.408,54.168 329.737,53.044 C334.735,50.631 343.955,47.875 343.955,47.875 C343.955,47.875 358.172,52.399 362.695,47.875 C367.219,43.351 380.145,43.351 384.669,43.351 C389.192,43.351 394.04,38.503 394.04,38.503 L411.166,29.133 C411.166,29.133 420.538,28.163 422.799,25.902 C425.061,23.64 434.432,20.733 434.432,20.733 C434.432,20.733 451.234,25.902 455.112,25.902 C458.99,25.902 469.33,23.317 473.208,19.44 C477.085,15.562 481.609,6.282 485.486,6.282 C489.363,6.282 495.073,9.018 500.351,7.161 C504.552,2.959 507.459,0.051 507.459,0.051 C507.459,0.051 522.97,3.283 526.848,3.283 C530.725,3.283 549.466,20.085 555.93,20.085 C562.392,20.085 583.719,38.827 586.949,38.827 C590.183,38.827 602.783,45.936 602.783,51.429 C602.783,56.923 613.447,53.044 617.972,53.044 C622.495,53.044 625.081,42.705 628.958,46.582 C632.835,50.459 643.539,51.83 648.063,56.355 C650.077,58.369 665.316,67.678 681.429,79.827 C687.77,83.241 689.063,80.323 695.143,83.641 C707.302,90.276 733.303,92.844 735.454,94.995 C736.922,96.463 752.013,115.806 749.194,118.624 C746.376,121.443 771.144,117.885 778.094,120.521 C789.374,116.224 789.374,116.224 802.024,117.388 C819.47,127.744 841.893,114.545 841.893,114.545 L841.889,232.099 C841.889,232.099 822.535,234.008 815.935,234.008 C809.334,234.008 801.353,232.438 789.505,232.438 C783.323,232.896 773.34,233.757 767.787,234.101 C749.186,235.251 749.186,235.251 731.87,231.796 C732.89,235.276 690.66,233.873 696.026,241.947 C678.422,233.021 659.9,228.066 636.484,222.715 C664.85,239.279 641.627,233.896 638.398,236.584 C630.146,243.456 547.902,216.835 547.902,227.731 C517.791,219.33 441.674,163.183 399.867,153.967 C385.187,150.731 138.082,98.479 118.047,95.895 C44.237,86.369 0,98.552 0,98.552 L0,52.094" id="Fill-353"></path>
                    <path d="M507.358,0.051 C507.358,0.051 520.175,35.018 528.939,43.783 C537.705,52.547 548.102,80.037 548.102,80.037 C548.102,80.037 552.342,68.446 552.342,72.12 C552.342,75.796 559.41,82.865 559.41,82.865 C559.41,82.865 567.732,74.8 578.637,81.167 C589.541,87.536 595.041,93.037 595.041,93.037 C595.041,93.037 596.047,102.174 595.041,106.049 C585.727,141.948 612.889,173.903 612.889,173.903 C612.889,173.903 634.91,131.221 626.89,107.935 C637.634,107.935 724.087,165.578 724.087,165.578 C724.087,165.578 644.008,83.486 629.091,83.486 C638.704,83.486 635.999,68.072 635.999,68.072 C635.999,68.072 664.261,86.949 683.76,95.623 C691.858,99.226 699.671,105.23 705.562,107.968 C712.668,111.272 720.065,114.203 726.946,120.115 C732.243,124.665 659.62,92.247 663.936,96.641 C669.85,102.662 735.852,145.1 738.28,147.529 C744.783,154.031 760.364,151.716 760.364,159.068 C771.236,148.196 822.149,135.327 828.653,141.829 C810.405,148.332 786.137,176.549 791.227,181.639 C819.945,165.666 814.035,203.112 841.889,229.884 L841.892,117.619 C825.266,139.614 831.009,120.319 801.924,117.388 C792.281,125.079 792.852,136.526 763.93,148.124 C766.242,141.286 764.43,127.658 780.71,119.054 C776.91,120.324 758.044,113.321 738.485,125.586 C738.485,120.459 741.384,110.93 738.38,99.633 C729.733,87.072 714.331,107.782 695.042,88.493 C677.577,79.744 664.5,72.024 664.5,69.946 C664.5,64.204 648.284,57.443 645.233,54.392 C638.463,47.621 626.695,44.42 626.695,44.42 C626.695,44.42 600.578,48.363 598.929,47.675 C572.638,36.702 537.476,0.819 558.28,31.973 C562.049,37.617 526.747,3.283 526.747,3.283 C526.747,3.283 513.55,0.051 507.358,0.051" id="Fill-357"></path>
                    <path d="M507.358,0.051 C507.358,0.051 520.175,35.018 528.939,43.783 C537.705,52.547 548.102,80.037 548.102,80.037 C548.102,80.037 552.342,68.446 552.342,72.12 C552.342,75.796 559.41,82.865 559.41,82.865 C559.41,82.865 567.732,74.8 578.637,81.167 C589.541,87.536 595.041,93.037 595.041,93.037 C595.041,93.037 596.047,102.174 595.041,106.049 C585.727,141.948 612.889,173.903 612.889,173.903 C612.889,173.903 634.91,131.221 626.89,107.935 C637.634,107.935 724.087,165.578 724.087,165.578 C724.087,165.578 644.008,83.486 629.091,83.486 C638.704,83.486 635.999,68.072 635.999,68.072 C635.999,68.072 664.261,86.949 683.76,95.623 C691.858,99.226 699.671,105.23 705.562,107.968 C712.668,111.272 720.065,114.203 726.946,120.115 C732.243,124.665 659.62,92.247 663.936,96.641 C669.85,102.662 735.852,145.1 738.28,147.529 C744.783,154.031 760.364,151.716 760.364,159.068 C771.236,148.196 822.149,135.327 828.653,141.829 C810.405,148.332 786.137,176.549 791.227,181.639 C819.945,165.666 814.035,203.112 841.889,229.884 L841.892,117.619 C825.266,139.614 831.009,120.319 801.924,117.388 C792.281,125.079 792.852,136.526 763.93,148.124 C766.242,141.286 764.43,127.658 780.71,119.054 C776.91,120.324 758.044,113.321 738.485,125.586 C738.485,120.459 741.384,110.93 738.38,99.633 C729.733,87.072 714.331,107.782 695.042,88.493 C677.577,79.744 664.5,72.024 664.5,69.946 C664.5,64.204 648.284,57.443 645.233,54.392 C638.463,47.621 626.695,44.42 626.695,44.42 C626.695,44.42 600.578,48.363 598.929,47.675 C572.638,36.702 537.476,0.819 558.28,31.973 C562.049,37.617 526.747,3.283 526.747,3.283 C526.747,3.283 513.55,0.051 507.358,0.051" id="Fill-355" fill="#6A9263"></path>
                    <path d="M485.486,7.161 C485.486,7.161 485.395,0.849 471.075,21.573 C468.247,24.401 463.43,30.791 463.43,34.185 C463.43,37.577 458.699,29.372 451.632,29.372 C444.564,29.372 436.646,30.19 433.253,33.582 C429.86,30.191 434.432,20.733 434.432,20.733 C434.432,20.733 420.323,27.749 415.744,28.441 C411.166,29.133 411.255,29.043 407.863,32.436 C404.471,35.828 391.364,39.386 388.254,42.496 C385.144,45.607 352.518,65.41 346.89,68.127 C338.408,65.684 367.105,48.912 364.64,46.448 C361.244,49.843 353.221,51.527 349.374,55.373 C344.328,53.822 328.067,54.224 328.067,54.224 C328.067,54.224 317.163,62.359 309.834,72.948 C299.395,76.645 285.146,83.897 285.146,83.897 C285.146,83.897 279.038,89.828 279.038,83.43 C279.038,78.907 283.562,72.537 283.562,72.537 L292.121,66.567 C292.121,66.567 269.707,71.838 259.246,82.3 C248.785,92.761 240.467,98.851 240.467,98.851 C240.467,98.851 240.208,89.65 244.167,85.692 C248.125,81.734 250.387,77.152 253.57,75.977 C258.948,73.993 265.899,73.482 265.899,73.482 C265.899,73.482 259.996,71.859 256.814,71.859 C253.632,71.859 241.176,78.932 238.631,81.476 C236.086,84.02 220.427,99.18 213.642,99.18 C206.856,99.18 201.9,98.736 192.692,97.051 C195.478,94.266 208.671,82.923 221.976,81.445 C224.52,78.901 205.006,84.82 205.006,84.82 C205.006,84.82 194.015,88.094 190.202,94.137 C183.416,94.137 171.049,76.647 165.007,76.647 C154.372,66.011 141.577,72.076 137.739,69.655 C134.079,67.345 118.033,67.258 99.921,68.002 C111.486,68.002 113.5,70.812 113.5,70.812 C113.5,70.812 130.608,73.244 141.339,77.031 C149.321,79.848 174.728,99.405 166.937,98.528 C142.505,95.778 192.264,109.619 190.444,111.132 C243.812,126.246 348.94,154.798 357.008,153.832 C381.081,150.951 271.599,119.032 271.599,113.962 C271.599,113.962 233.793,106.028 228.615,103.121 C231.948,103.121 250.636,104.2 257.987,104.2 C265.338,104.2 265.185,101.667 267.87,101.667 C270.556,101.667 299.678,95.022 305.615,89.084 C308.309,86.391 329.875,81.788 325.972,85.692 C310.954,93.988 284.814,109.7 284.814,109.7 C284.814,109.7 327.403,92.83 343.802,95.657 C338.895,96.703 333.323,98.698 333.323,98.698 C333.323,98.698 296.532,111.911 302.47,111.911 C311.933,111.911 316.851,111.108 334.381,115.974 C344.969,110.706 380.486,101.861 380.486,101.861 C380.486,101.861 399.482,109.443 404.854,114.814 C410.228,120.186 426.099,134.503 426.099,134.503 C426.099,134.503 414.18,110.19 401.18,95.305 C404.572,86.258 410.705,83.908 415.793,78.818 C420.883,73.728 439.125,64.263 439.125,64.263 C439.125,64.263 409.503,75.172 402.152,77.106 C395.043,78.976 394.513,84.351 385.464,86.614 C376.417,88.875 354.612,82.733 354.612,82.733 C354.612,82.733 373.359,84.908 386.823,82.539 C393.291,76.072 426.425,64.034 426.425,64.034 C426.425,64.034 468.759,44.728 471.304,44.728 C473.849,44.728 428.561,76.485 426.186,95.429 C430.843,92.712 474.369,61.632 478.326,65.591 C482.285,69.55 540.35,87.837 540.35,87.837 C536.658,84.146 510.659,56.763 510.659,48.234 C527.446,65.022 531.295,63.696 531.295,63.696 C531.295,63.696 508.771,26.963 508.771,24.135 C508.771,21.308 506.821,19.588 509.649,16.76 C512.477,13.933 507.459,0.051 507.459,0.051 C507.459,0.051 497.591,13.17 494.341,13.17 C491.09,13.17 488.872,5.465 485.486,7.161" id="Fill-359" fill="#719764"></path>
                    <path d="M485.486,7.161 C485.486,7.161 485.395,0.849 471.075,21.573 C468.247,24.401 463.43,30.791 463.43,34.185 C463.43,37.577 458.699,29.372 451.632,29.372 C444.564,29.372 436.646,30.19 433.253,33.582 C429.86,30.191 434.432,20.733 434.432,20.733 C434.432,20.733 420.323,27.749 415.744,28.441 C411.166,29.133 411.255,29.043 407.863,32.436 C404.471,35.828 391.364,39.386 388.254,42.496 C385.144,45.607 352.518,65.41 346.89,68.127 C338.408,65.684 367.105,48.912 364.64,46.448 C361.244,49.843 353.221,51.527 349.374,55.373 C344.328,53.822 328.067,54.224 328.067,54.224 C328.067,54.224 317.163,62.359 309.834,72.948 C299.395,76.645 285.146,83.897 285.146,83.897 C285.146,83.897 279.038,89.828 279.038,83.43 C279.038,78.907 283.562,72.537 283.562,72.537 L292.121,66.567 C292.121,66.567 269.707,71.838 259.246,82.3 C248.785,92.761 240.467,98.851 240.467,98.851 C240.467,98.851 240.208,89.65 244.167,85.692 C248.125,81.734 250.387,77.152 253.57,75.977 C258.948,73.993 265.899,73.482 265.899,73.482 C265.899,73.482 259.996,71.859 256.814,71.859 C253.632,71.859 241.176,78.932 238.631,81.476 C236.086,84.02 220.427,99.18 213.642,99.18 C206.856,99.18 201.9,98.736 192.692,97.051 C195.478,94.266 208.671,82.923 221.976,81.445 C224.52,78.901 205.006,84.82 205.006,84.82 C205.006,84.82 194.015,88.094 190.202,94.137 C183.416,94.137 171.049,76.647 165.007,76.647 C154.372,66.011 141.577,72.076 137.739,69.655 C134.079,67.345 118.033,67.258 99.921,68.002 C111.486,68.002 113.5,70.812 113.5,70.812 C113.5,70.812 130.608,73.244 141.339,77.031 C149.321,79.848 174.728,99.405 166.937,98.528 C142.505,95.778 192.264,109.619 190.444,111.132 C243.812,126.246 348.94,154.798 357.008,153.832 C381.081,150.951 271.599,119.032 271.599,113.962 C271.599,113.962 233.793,106.028 228.615,103.121 C231.948,103.121 250.636,104.2 257.987,104.2 C265.338,104.2 265.185,101.667 267.87,101.667 C270.556,101.667 299.678,95.022 305.615,89.084 C308.309,86.391 329.875,81.788 325.972,85.692 C310.954,93.988 284.814,109.7 284.814,109.7 C284.814,109.7 327.403,92.83 343.802,95.657 C338.895,96.703 333.323,98.698 333.323,98.698 C333.323,98.698 296.532,111.911 302.47,111.911 C311.933,111.911 316.851,111.108 334.381,115.974 C344.969,110.706 380.486,101.861 380.486,101.861 C380.486,101.861 399.482,109.443 404.854,114.814 C410.228,120.186 426.099,134.503 426.099,134.503 C426.099,134.503 414.18,110.19 401.18,95.305 C404.572,86.258 410.705,83.908 415.793,78.818 C420.883,73.728 439.125,64.263 439.125,64.263 C439.125,64.263 409.503,75.172 402.152,77.106 C395.043,78.976 394.513,84.351 385.464,86.614 C376.417,88.875 354.612,82.733 354.612,82.733 C354.612,82.733 373.359,84.908 386.823,82.539 C393.291,76.072 426.425,64.034 426.425,64.034 C426.425,64.034 468.759,44.728 471.304,44.728 C473.849,44.728 428.561,76.485 426.186,95.429 C430.843,92.712 474.369,61.632 478.326,65.591 C482.285,69.55 540.35,87.837 540.35,87.837 C536.658,84.146 510.659,56.763 510.659,48.234 C527.446,65.022 531.295,63.696 531.295,63.696 C531.295,63.696 508.771,26.963 508.771,24.135 C508.771,21.308 506.821,19.588 509.649,16.76 C512.477,13.933 507.459,0.051 507.459,0.051 C507.459,0.051 497.591,13.17 494.341,13.17 C491.09,13.17 488.872,5.465 485.486,7.161" id="Fill-361"></path>
                    <path d="M625.823,44.42 C625.823,44.42 621.23,42.104 613.657,46.288 C613.657,50.473 606.43,45.962 599.029,47.675 C597.699,54.645 600.946,58.476 596.697,57.516 C588.235,53.927 575.774,77.325 570.12,77.325 C557.588,74.715 500.225,131.909 500.225,131.909 C500.225,131.909 551.164,82.832 595.136,91.347 C605.669,93.387 610.704,94.931 617.49,88.147 C625.167,80.471 620.083,81.954 630.194,71.838 C633.447,68.586 639.966,67.086 633.447,65.806 C624.76,64.1 663.054,73.288 665.316,75.55 C667.578,77.812 638.677,55.631 633.588,55.631 C628.499,55.631 628.704,55.194 624.18,52.284 C619.655,49.373 625.823,44.42 625.823,44.42" id="Fill-363" fill="#719263"></path>
                    <path d="M625.823,44.42 C625.823,44.42 621.23,42.104 613.657,46.288 C613.657,50.473 606.43,45.962 599.029,47.675 C597.699,54.645 600.946,58.476 596.697,57.516 C588.235,53.927 575.774,77.325 570.12,77.325 C557.588,74.715 500.225,131.909 500.225,131.909 C500.225,131.909 551.164,82.832 595.136,91.347 C605.669,93.387 610.704,94.931 617.49,88.147 C625.167,80.471 620.083,81.954 630.194,71.838 C633.447,68.586 639.966,67.086 633.447,65.806 C624.76,64.1 663.054,73.288 665.316,75.55 C667.578,77.812 638.677,55.631 633.588,55.631 C628.499,55.631 628.704,55.194 624.18,52.284 C619.655,49.373 625.823,44.42 625.823,44.42" id="Fill-365"></path>
                    <path d="M513.143,4.83 C513.143,4.83 521.059,8.713 523.32,17.196 C525.583,21.695 538.49,31.505 538.49,31.505 C538.49,31.505 535.926,22.947 531.765,17.236 C526.172,9.559 515.711,0.969 515.711,0.969 C515.711,0.969 529.515,2.768 533.756,7.008 C557.287,32.981 555.969,17.643 559.627,20.085 C569.83,26.898 583.485,37.887 594.53,42.055 C594.53,45.024 566.318,39.139 548.767,28.118 C565.987,45.338 600.946,58.476 600.946,58.476 C600.946,58.476 557.485,51.763 553.525,55.722 C549.567,59.68 532.599,47.47 532.599,47.47 C532.599,47.47 547.353,62.225 552.442,67.313 C557.531,72.404 557.531,81.167 557.531,81.167 C557.531,81.167 559.511,85.607 566.861,85.607 C574.214,85.607 597.612,102.908 597.612,102.908 C597.612,102.908 574.146,96.666 565.664,96.666 C557.183,96.666 549.897,98.698 549.897,98.698 C549.897,98.698 543.333,83.665 535.762,80.037 C526.088,75.403 518.802,75.677 511.446,64.211 C511.446,64.211 524.239,72.275 518.02,66.054 C511.799,59.833 505.226,37.627 505.226,37.627 C505.226,37.627 513.142,45.544 518.797,51.199 C524.452,56.853 541.992,74.394 541.992,74.394 C541.992,74.394 526.859,44.359 521.488,38.987 C518.142,27.09 515.468,25.093 515.468,25.093 L520.4,46.597 C520.4,46.597 508.771,24.135 508.122,19.849 C515.191,16.738 507.459,0.051 507.459,0.051 L513.143,4.83" id="Fill-367" fill="#809F69"></path>
                    <path d="M513.143,4.83 C513.143,4.83 521.059,8.713 523.32,17.196 C525.583,21.695 538.49,31.505 538.49,31.505 C538.49,31.505 535.926,22.947 531.765,17.236 C526.172,9.559 515.711,0.969 515.711,0.969 C515.711,0.969 529.515,2.768 533.756,7.008 C557.287,32.981 555.969,17.643 559.627,20.085 C569.83,26.898 583.485,37.887 594.53,42.055 C594.53,45.024 566.318,39.139 548.767,28.118 C565.987,45.338 600.946,58.476 600.946,58.476 C600.946,58.476 557.485,51.763 553.525,55.722 C549.567,59.68 532.599,47.47 532.599,47.47 C532.599,47.47 547.353,62.225 552.442,67.313 C557.531,72.404 557.531,81.167 557.531,81.167 C557.531,81.167 559.511,85.607 566.861,85.607 C574.214,85.607 597.612,102.908 597.612,102.908 C597.612,102.908 574.146,96.666 565.664,96.666 C557.183,96.666 549.897,98.698 549.897,98.698 C549.897,98.698 543.333,83.665 535.762,80.037 C526.088,75.403 518.802,75.677 511.446,64.211 C511.446,64.211 524.239,72.275 518.02,66.054 C511.799,59.833 505.226,37.627 505.226,37.627 C505.226,37.627 513.142,45.544 518.797,51.199 C524.452,56.853 541.992,74.394 541.992,74.394 C541.992,74.394 526.859,44.359 521.488,38.987 C518.142,27.09 515.468,25.093 515.468,25.093 L520.4,46.597 C520.4,46.597 508.771,24.135 508.122,19.849 C515.191,16.738 507.459,0.051 507.459,0.051 L513.143,4.83" id="Fill-369"></path>
                    <path d="M492.187,35.102 C492.187,35.102 487.109,48.277 478.627,56.76 C470.144,65.243 459.199,89.718 459.199,89.718 C459.199,89.718 461.334,114.944 471.194,114.167 C474.587,122.649 496.744,119.338 496.744,119.338 C496.744,119.338 485.655,89.452 489.331,68.237 C493.007,71.912 500.701,88.52 504.66,84.561 C508.619,80.602 511.729,78.057 514.273,80.602 C516.818,83.148 523.039,89.368 528.128,94.455 C533.217,99.545 524.481,84.671 533.217,86.824 C543.424,89.339 549.897,98.698 549.897,98.698 C543.701,81.075 533.004,75.471 514.475,70.632 C507.447,68.797 505.226,63.638 502.116,60.529 C499.006,57.418 496.642,50.293 496.642,50.293 C496.642,50.293 498.44,56.854 498.44,62.508 C498.44,68.162 503.863,74.555 503.863,74.555 L491.798,61.195 C491.798,61.195 488.338,51.126 489.912,49.552 C491.484,47.98 492.187,35.102 492.187,35.102" id="Fill-371" fill="#6B8F5B"></path>
                    <path d="M492.187,35.102 C492.187,35.102 487.109,48.277 478.627,56.76 C470.144,65.243 459.199,89.718 459.199,89.718 C459.199,89.718 461.334,114.944 471.194,114.167 C474.587,122.649 496.744,119.338 496.744,119.338 C496.744,119.338 485.655,89.452 489.331,68.237 C493.007,71.912 500.701,88.52 504.66,84.561 C508.619,80.602 511.729,78.057 514.273,80.602 C516.818,83.148 523.039,89.368 528.128,94.455 C533.217,99.545 524.481,84.671 533.217,86.824 C543.424,89.339 549.897,98.698 549.897,98.698 C543.701,81.075 533.004,75.471 514.475,70.632 C507.447,68.797 505.226,63.638 502.116,60.529 C499.006,57.418 496.642,50.293 496.642,50.293 C496.642,50.293 498.44,56.854 498.44,62.508 C498.44,68.162 503.863,74.555 503.863,74.555 L491.798,61.195 C491.798,61.195 488.338,51.126 489.912,49.552 C491.484,47.98 492.187,35.102 492.187,35.102" id="Fill-373"></path>
                    <path d="M481.689,53.338 C481.689,53.338 459.479,73.678 449.222,73.678 C440.456,82.444 428.604,93.042 428.604,93.042 C428.604,93.042 430.041,85.148 433.856,81.331 C437.674,77.514 479.849,36.394 479.849,36.394 C479.849,36.394 407.354,79.621 395.338,97.925 C404.435,104.702 434.218,146.305 434.218,146.305 C434.218,146.305 432.846,113.966 422.198,112.979 C426.87,108.307 416.277,92.082 416.277,92.082 C416.277,92.082 432.846,108.876 432.846,113.966 C432.846,119.054 444.076,149.608 444.076,149.608 C444.076,149.608 440.479,106.897 445.286,111.703 C451.7,140.295 469.157,141.865 469.157,141.865 C469.157,141.865 463.381,119.054 467.905,119.054 C472.429,119.054 478.404,133.435 478.404,133.435 C478.404,133.435 492.221,127.82 496.744,119.338 C500.703,119.338 486.642,102.247 486.642,102.247 C486.642,102.247 479.975,72.054 480.35,76.911 C481.127,86.992 474,84.935 474,97.869 C474,108.047 480.353,114.531 480.353,114.531 C480.353,114.531 472.39,109.044 466.451,103.107 C460.515,97.17 477.303,85.195 462.363,85.195 C469.566,77.992 476.091,66.027 481.689,53.338" id="Fill-375" fill="#62875E"></path>
                    <path d="M481.689,53.338 C481.689,53.338 459.479,73.678 449.222,73.678 C440.456,82.444 428.604,93.042 428.604,93.042 C428.604,93.042 430.041,85.148 433.856,81.331 C437.674,77.514 479.849,36.394 479.849,36.394 C479.849,36.394 407.354,79.621 395.338,97.925 C404.435,104.702 434.218,146.305 434.218,146.305 C434.218,146.305 432.846,113.966 422.198,112.979 C426.87,108.307 416.277,92.082 416.277,92.082 C416.277,92.082 432.846,108.876 432.846,113.966 C432.846,119.054 444.076,149.608 444.076,149.608 C444.076,149.608 440.479,106.897 445.286,111.703 C451.7,140.295 469.157,141.865 469.157,141.865 C469.157,141.865 463.381,119.054 467.905,119.054 C472.429,119.054 478.404,133.435 478.404,133.435 C478.404,133.435 492.221,127.82 496.744,119.338 C500.703,119.338 486.642,102.247 486.642,102.247 C486.642,102.247 479.975,72.054 480.35,76.911 C481.127,86.992 474,84.935 474,97.869 C474,108.047 480.353,114.531 480.353,114.531 C480.353,114.531 472.39,109.044 466.451,103.107 C460.515,97.17 477.303,85.195 462.363,85.195 C469.566,77.992 476.091,66.027 481.689,53.338" id="Fill-377"></path>
                    <path d="M586.072,100.072 C586.072,100.072 583.827,100.958 583.827,111.703 C583.827,122.448 576.869,137.886 576.869,137.886 C576.869,137.886 578.172,106.482 574.495,110.159 C570.82,113.833 570.82,119.055 564.429,125.447 C564.429,116.965 573.082,98.132 573.082,98.132 C573.082,98.132 567.428,101.481 563.47,105.438 C559.511,109.396 556.118,119.054 552.726,122.448 C549.333,125.84 543.679,131.495 543.679,131.495 L543.679,117.924 C543.679,115.096 547.637,101.525 547.637,101.525 C547.637,101.525 538.022,104.918 535.195,107.745 C532.369,110.573 490.207,138.597 490.207,138.597 C490.207,138.597 518.527,110.277 518.527,105.753 C516.207,108.074 511.447,113.118 506.64,113.118 C501.833,113.118 496.744,119.338 496.744,119.338 C496.744,119.338 493.351,118.49 487.13,124.709 C480.909,130.93 477.518,139.978 466.209,142.804 C454.899,145.632 449.518,151.202 430.393,150.129 C411.269,149.056 358.355,141.108 358.355,141.108 C358.355,141.108 464.115,169.996 466.094,168.018 C468.073,166.038 485.056,157.778 485.056,157.778 C485.056,157.778 500.338,153.831 507.972,146.198 C515.605,138.565 525.019,125.839 527.279,123.578 C528.879,121.979 518.884,143.653 511.25,151.286 C503.616,158.92 474.815,175.642 474.815,175.642 C474.815,175.642 500.488,204.229 531.397,219.449 C548.12,218.075 563.292,223.829 583.775,228.019 C573.256,213.317 564.872,202.298 563.223,191.554 C561.339,179.283 531.399,165.698 531.399,165.698 C531.399,165.698 553.078,171.2 560.239,172.327 C573.488,174.414 590.69,184.995 595.952,190.26 C597.87,192.179 580.998,168.251 584.393,164.858 C587.785,161.465 594.283,151.567 597.676,141.953 C601.069,132.339 609.353,129.553 618.23,109.762 C618.23,95.768 620.103,91.243 625.757,85.588 C636.484,88.789 636.752,66.511 636.752,66.511 C636.752,66.511 616.408,78.798 609.814,85.391 C597.282,92.386 563.59,88.964 563.59,88.964 L586.072,100.072" id="Fill-379" fill="#6A8662"></path>
                    <path d="M586.072,100.072 C586.072,100.072 583.827,100.958 583.827,111.703 C583.827,122.448 576.869,137.886 576.869,137.886 C576.869,137.886 578.172,106.482 574.495,110.159 C570.82,113.833 570.82,119.055 564.429,125.447 C564.429,116.965 573.082,98.132 573.082,98.132 C573.082,98.132 567.428,101.481 563.47,105.438 C559.511,109.396 556.118,119.054 552.726,122.448 C549.333,125.84 543.679,131.495 543.679,131.495 L543.679,117.924 C543.679,115.096 547.637,101.525 547.637,101.525 C547.637,101.525 538.022,104.918 535.195,107.745 C532.369,110.573 490.207,138.597 490.207,138.597 C490.207,138.597 518.527,110.277 518.527,105.753 C516.207,108.074 511.447,113.118 506.64,113.118 C501.833,113.118 496.744,119.338 496.744,119.338 C496.744,119.338 493.351,118.49 487.13,124.709 C480.909,130.93 477.518,139.978 466.209,142.804 C454.899,145.632 449.518,151.202 430.393,150.129 C411.269,149.056 358.355,141.108 358.355,141.108 C358.355,141.108 464.115,169.996 466.094,168.018 C468.073,166.038 485.056,157.778 485.056,157.778 C485.056,157.778 500.338,153.831 507.972,146.198 C515.605,138.565 525.019,125.839 527.279,123.578 C528.879,121.979 518.884,143.653 511.25,151.286 C503.616,158.92 474.815,175.642 474.815,175.642 C474.815,175.642 500.488,204.229 531.397,219.449 C548.12,218.075 563.292,223.829 583.775,228.019 C573.256,213.317 564.872,202.298 563.223,191.554 C561.339,179.283 531.399,165.698 531.399,165.698 C531.399,165.698 553.078,171.2 560.239,172.327 C573.488,174.414 590.69,184.995 595.952,190.26 C597.87,192.179 580.998,168.251 584.393,164.858 C587.785,161.465 594.283,151.567 597.676,141.953 C601.069,132.339 609.353,129.553 618.23,109.762 C618.23,95.768 620.103,91.243 625.757,85.588 C636.484,88.789 636.752,66.511 636.752,66.511 C636.752,66.511 616.408,78.798 609.814,85.391 C597.282,92.386 563.59,88.964 563.59,88.964 L586.072,100.072" id="Fill-381"></path>
                    <path d="M570.73,246.539 C570.728683,246.538348 483.220674,203.215775 439.914,173.314 C417.381,157.116 388.187,151.389 388.187,151.389 C388.187,151.389 410.116,162.85 416.62,169.353 C423.122,175.857 514.258,225.731 514.258,225.731 C514.258,225.731 331.416,142.54 305.333,147.197 C339.333,157.03 390.719,192.869 390.719,192.869 C390.719,192.869 292.088,171.434 227.11,153.383 C218.039,150.863 75.203,129.798 65.814,127.218 C53.172,123.744 158.909,111.612 191.96,114.619 C113.90622,83.5612719 3.00737151,101.318482 0.06,101.798181 L0.06,57.9826552 C0.698752676,58.8661905 6.55854131,66.5579266 23.4,75.975 C27.883,78.482 2.859,81.085 6.778,84.207 C11.272,83.729 60.026,80.606 65.615,80.398 C100.5,79.099 153.098,83.482 178.163,98.851 C199.166,111.728 346.894,146.762 346.894,146.762 C346.894,146.762 286.241,116.919 227.206,104.531 C241.227,107.012 335.819,125.89 362.66,140.29 C360.503,134.58 344.311,121.897 327.867,115.974 C327.867,112.016 367.214,126.369 376.827,126.369 C389.708,123.102 399.13,129.021 406.48,129.021 C413.832,129.021 395.238,105.199 395.238,105.199 C395.238,105.199 424.647,132.91 431.715,139.978 C438.784,147.045 447.425,157.154 447.425,157.154 C447.425,157.154 458.22,162.596 463.381,162.596 C468.543,162.596 570.73,246.539 570.73,246.539 L0,246.539 L0,57.898 L570.73,57.898 L570.73,246.539 L570.73,246.539 Z" id="Clip-384"></path>
                    <path d="M227.11,153.383 C218.039,150.863 75.203,129.798 65.814,127.218 C53.172,123.744 158.909,111.612 191.96,114.619 C112.85,83.141 0,101.808 0,101.808 L0,57.898 C0,57.898 5.491,65.961 23.4,75.975 C27.883,78.482 2.859,81.085 6.778,84.207 C11.272,83.729 60.026,80.606 65.615,80.398 C100.5,79.099 153.098,83.482 178.163,98.851 C199.166,111.728 346.894,146.762 346.894,146.762 C346.894,146.762 286.241,116.919 227.206,104.531 C241.227,107.012 335.819,125.89 362.66,140.29 C360.503,134.58 344.311,121.897 327.867,115.974 C327.867,112.016 367.214,126.369 376.827,126.369 C389.708,123.102 399.13,129.021 406.48,129.021 C413.832,129.021 395.238,105.199 395.238,105.199 C395.238,105.199 424.647,132.91 431.715,139.978 C438.784,147.045 447.425,157.154 447.425,157.154 C447.425,157.154 458.22,162.596 463.381,162.596 C468.543,162.596 570.73,246.539 570.73,246.539 C570.73,246.539 483.221,203.216 439.914,173.314 C417.381,157.116 388.187,151.389 388.187,151.389 C388.187,151.389 410.116,162.85 416.62,169.353 C423.122,175.857 514.258,225.731 514.258,225.731 C514.258,225.731 331.416,142.54 305.333,147.197 C339.333,157.03 390.719,192.869 390.719,192.869 C390.719,192.869 292.088,171.434 227.11,153.383" id="Fill-383" fill="#72A76F"></path>
                    <path d="M227.11,153.383 C218.039,150.863 75.203,129.798 65.814,127.218 C53.172,123.744 158.909,111.612 191.96,114.619 C112.85,83.141 0,101.808 0,101.808 L0,57.898 C0,57.898 5.491,65.961 23.4,75.975 C27.883,78.482 2.859,81.085 6.778,84.207 C11.272,83.729 60.026,80.606 65.615,80.398 C100.5,79.099 153.098,83.482 178.163,98.851 C199.166,111.728 346.894,146.762 346.894,146.762 C346.894,146.762 286.241,116.919 227.206,104.531 C241.227,107.012 335.819,125.89 362.66,140.29 C360.503,134.58 344.311,121.897 327.867,115.974 C327.867,112.016 367.214,126.369 376.827,126.369 C389.708,123.102 399.13,129.021 406.48,129.021 C413.832,129.021 395.238,105.199 395.238,105.199 C395.238,105.199 424.647,132.91 431.715,139.978 C438.784,147.045 447.425,157.154 447.425,157.154 C447.425,157.154 458.22,162.596 463.381,162.596 C468.543,162.596 570.73,246.539 570.73,246.539 C570.73,246.539 483.221,203.216 439.914,173.314 C417.381,157.116 388.187,151.389 388.187,151.389 C388.187,151.389 410.116,162.85 416.62,169.353 C423.122,175.857 514.258,225.731 514.258,225.731 C514.258,225.731 331.416,142.54 305.333,147.197 C339.333,157.03 390.719,192.869 390.719,192.869 C390.719,192.869 292.088,171.434 227.11,153.383" id="Fill-385"></path>
                    <path d="M618.311,171.429 C618.311,171.429 616.014,137.869 623.5,101.809 C641.732,131.11 690.135,196.421 690.135,196.421 C690.135,196.421 680.364,154.678 671.884,146.198 C667.643,141.956 651.871,120.296 651.871,120.296 C651.871,120.296 690.7,154.115 700.313,172.209 C709.926,190.305 727.738,208.117 727.738,208.117 C727.738,208.117 735.238,191.86 739.057,188.042 C742.874,184.225 737.705,186.65 737.705,180.148 C737.705,173.645 708.643,139.896 708.643,139.896 C760.564,172.661 758.425,188.741 753.468,193.698 C743.072,204.093 781.636,210.861 781.636,210.861 C781.636,210.861 763.359,176.241 770.146,185.854 C776.93,195.467 841.886,232.099 841.886,232.099 C841.886,232.099 837.682,234.212 813.438,233.994 C793.31,233.812 757.737,231.308 730.876,231.308 C710.364,225.67 628.892,145.303 628.892,145.303 C628.892,145.303 643.372,183.864 649.986,189.173 C685.861,217.973 708.228,249.717 708.228,249.717 C708.228,249.717 648.605,210.609 619.795,202.054 C608.694,201.249 597.743,191.886 597.743,191.886 C597.743,191.886 587.231,185.556 582.621,180.946 C580.84,179.164 566.447,172.327 557.588,172.327 C588.036,160.344 600.834,135.986 600.834,135.986 C600.834,135.986 611.568,177.143 618.311,171.429" id="Fill-387" fill="#69835E"></path>
                    <path d="M618.311,171.429 C618.311,171.429 616.014,137.869 623.5,101.809 C641.732,131.11 690.135,196.421 690.135,196.421 C690.135,196.421 680.364,154.678 671.884,146.198 C667.643,141.956 651.871,120.296 651.871,120.296 C651.871,120.296 690.7,154.115 700.313,172.209 C709.926,190.305 727.738,208.117 727.738,208.117 C727.738,208.117 735.238,191.86 739.057,188.042 C742.874,184.225 737.705,186.65 737.705,180.148 C737.705,173.645 708.643,139.896 708.643,139.896 C760.564,172.661 758.425,188.741 753.468,193.698 C743.072,204.093 781.636,210.861 781.636,210.861 C781.636,210.861 763.359,176.241 770.146,185.854 C776.93,195.467 841.886,232.099 841.886,232.099 C841.886,232.099 837.682,234.212 813.438,233.994 C793.31,233.812 757.737,231.308 730.876,231.308 C710.364,225.67 628.892,145.303 628.892,145.303 C628.892,145.303 643.372,183.864 649.986,189.173 C685.861,217.973 708.228,249.717 708.228,249.717 C708.228,249.717 648.605,210.609 619.795,202.054 C608.694,201.249 597.743,191.886 597.743,191.886 C597.743,191.886 587.231,185.556 582.621,180.946 C580.84,179.164 566.447,172.327 557.588,172.327 C588.036,160.344 600.834,135.986 600.834,135.986 C600.834,135.986 611.568,177.143 618.311,171.429" id="Fill-389"></path>
                </g>
                <g id="hills" transform="translate(0.000000, 113.000000)">
                    <path d="M0,0.105 C0,0.105 172.25,19.886 238.25,37.473 C258.705,42.923 548.272,117.421 577.964,139.615 C592.903,150.782 602.821,152.991 595.523,154.389 C583.232,155.744 432.294,145.747 424.104,145.747 C415.913,145.747 0,77.827 0,77.827 L0,0.105" id="Fill-589"></path>
                </g>
            </g>
        </g>
    </g>
</svg>